<svg xmlns="http://www.w3.org/2000/svg" viewBox="0 0 760 460" font-family="'Noto Sans KR',sans-serif">
<rect width="760" height="460" fill="#F1F5F9"/>
<rect x="30" y="22" width="700" height="384" fill="#FFFFFF" stroke="#CBD5E1"/>
<text x="380" y="52" font-size="15" font-weight="700" fill="#0F172A" text-anchor="middle" letter-spacing="6">소유권이전등기신청(매매)</text>
<text x="52" y="82" font-size="12.5" font-weight="700" fill="#334155">6. 시가표준액 · 국민주택채권매입금액 · 발행번호</text>
<line x1="52" y1="90" x2="708" y2="90" stroke="#94A3B8"/><rect x="56" y="104" width="648" height="64" fill="#FFFFFF" stroke="#94A3B8"/><line x1="56" y1="136" x2="704" y2="136" stroke="#CBD5E1"/><line x1="300" y1="104" x2="300" y2="168" stroke="#CBD5E1"/><line x1="500" y1="104" x2="500" y2="168" stroke="#CBD5E1"/><text x="178" y="126" font-size="11.5" fill="#64748B" font-weight="700" text-anchor="middle">부동산 표시</text><text x="400" y="126" font-size="11.5" fill="#64748B" font-weight="700" text-anchor="middle">시가표준액</text><text x="602" y="126" font-size="11.5" fill="#64748B" font-weight="700" text-anchor="middle">채권매입금액</text><text x="178" y="158" font-size="11.5" fill="#0F172A" font-weight="400" text-anchor="middle">주택(집합건물)</text><text x="400" y="158" font-size="11.5" fill="#0F172A" font-weight="400" text-anchor="middle">금 000,000,000원</text><text x="602" y="158" font-size="11.5" fill="#0F172A" font-weight="400" text-anchor="middle">금 0,000,000원</text><rect x="300" y="136" width="200" height="32" fill="none" stroke="#DC2626" stroke-width="2.5" stroke-dasharray="7 4" rx="6"/><circle cx="300" cy="136" r="11" fill="#DC2626"/><text x="300" y="140" font-size="11" font-weight="800" fill="#fff" text-anchor="middle">1</text><rect x="500" y="136" width="204" height="32" fill="none" stroke="#DC2626" stroke-width="2.5" stroke-dasharray="7 4" rx="6"/><circle cx="500" cy="136" r="11" fill="#DC2626"/><text x="500" y="140" font-size="11" font-weight="800" fill="#fff" text-anchor="middle">2</text><text x="64" y="204" font-size="12.5" fill="#0F172A" font-weight="700" text-anchor="start">국민주택채권발행번호 :  0000-00-0000-0000</text><rect x="56" y="186" width="420" height="28" fill="none" stroke="#DC2626" stroke-width="2.5" stroke-dasharray="7 4" rx="6"/><circle cx="56" cy="186" r="11" fill="#DC2626"/><text x="56" y="190" font-size="11" font-weight="800" fill="#fff" text-anchor="middle">3</text><text x="64" y="244" font-size="11" font-weight="700" fill="#DC2626" text-anchor="start">① 취득세 납부서(OCR)에 적힌 시가표준액을 그대로</text><text x="64" y="262" font-size="11" font-weight="700" fill="#DC2626" text-anchor="start">② 주택도시기금에서 계산해 메모한 매입금액</text><text x="64" y="280" font-size="11" font-weight="700" fill="#DC2626" text-anchor="start">③ 은행 매입 영수증의 발행번호 — 번호 보관함에 저장한 값</text><rect x="0" y="422" width="760" height="38" fill="#E2E8F0"/>
<text x="380" y="445" font-size="10.5" fill="#475569" text-anchor="middle">재현 이미지 — 실제 대법원 서식과 배치가 다를 수 있으며, 기재 내용은 예시입니다 · 금액은 각 서류에서 옮겨 적습니다</text>
</svg>