<svg viewBox="0 0 780 520" xmlns="http://www.w3.org/2000/svg" font-family="'Malgun Gothic','Noto Sans KR',sans-serif">
<defs>
  <linearGradient id="hdrGrad" x1="0" y1="0" x2="1" y2="0">
    <stop offset="0" stop-color="#1155a5"/><stop offset="1" stop-color="#1a4ca0"/>
  </linearGradient>
  <linearGradient id="bannerGrad" x1="0" y1="0" x2="1" y2="0">
    <stop offset="0" stop-color="#0d3f8a"/><stop offset="1" stop-color="#1a6dc0"/>
  </linearGradient>
  <linearGradient id="btnBlue" x1="0" y1="0" x2="0" y2="1">
    <stop offset="0" stop-color="#3d83dd"/><stop offset="1" stop-color="#2a6fc9"/>
  </linearGradient>
  <linearGradient id="btnGreen" x1="0" y1="0" x2="0" y2="1">
    <stop offset="0" stop-color="#3eb87c"/><stop offset="1" stop-color="#2a9a65"/>
  </linearGradient>
  <linearGradient id="step1Grad" x1="0" y1="0" x2="1" y2="0">
    <stop offset="0" stop-color="#e0e5ee"/><stop offset="1" stop-color="#c5cce0"/>
  </linearGradient>
  <linearGradient id="step2Grad" x1="0" y1="0" x2="1" y2="0">
    <stop offset="0" stop-color="#1a6dc0"/><stop offset="1" stop-color="#2a83e0"/>
  </linearGradient>
</defs>
<rect x="0" y="0" width="780" height="520" fill="#e8ecf4"/>
<rect x="10" y="10" width="760" height="500" fill="#fff" stroke="#c5ccd8"/>
<text x="22" y="36" font-size="10" fill="#333">최종 결제전 프린터 출력 가능 여부를 확인하시기 바랍니다.</text>
<rect x="668" y="24" width="90" height="22" rx="3" fill="#7a8595"/><text x="713" y="39" text-anchor="middle" font-size="8.5" font-weight="700" fill="#fff">테스트출력</text>
<circle cx="32" cy="61" r="6" fill="#f39c12"/>
<text x="44" y="65" font-size="10.5" font-weight="700" fill="#1a3a6a">전자수입인지 정보</text>
<line x1="18" y1="72" x2="762" y2="72" stroke="#1a4ca0" stroke-width="1.5"/>
<rect x="18" y="74" width="200" height="26" fill="#f3f5f9" stroke="#dde1eb"/>
<text x="28" y="90" font-size="8.8" font-weight="600" fill="#444">고유번호</text>
<rect x="218" y="74" width="544" height="26" fill="#fff" stroke="#dde1eb"/>
<text x="228" y="90" font-size="8.8" fill="#333"></text>
<rect x="18" y="100" width="200" height="26" fill="#f3f5f9" stroke="#dde1eb"/>
<text x="28" y="116" font-size="8.8" font-weight="600" fill="#444">금액</text>
<rect x="218" y="100" width="544" height="26" fill="#fff" stroke="#dde1eb"/>
<text x="228" y="116" font-size="8.8" fill="#333">150,000 원</text>
<rect x="18" y="126" width="200" height="26" fill="#f3f5f9" stroke="#dde1eb"/>
<text x="28" y="142" font-size="8.8" font-weight="600" fill="#444">용도</text>
<rect x="218" y="126" width="544" height="26" fill="#fff" stroke="#dde1eb"/>
<text x="228" y="142" font-size="8.8" fill="#333">인지세 납부</text>
<rect x="18" y="152" width="200" height="26" fill="#f3f5f9" stroke="#dde1eb"/>
<text x="28" y="168" font-size="8.8" font-weight="600" fill="#444">발급일</text>
<rect x="218" y="152" width="544" height="26" fill="#fff" stroke="#dde1eb"/>
<text x="228" y="168" font-size="8.8" fill="#333"></text>
<rect x="18" y="178" width="200" height="26" fill="#f3f5f9" stroke="#dde1eb"/>
<text x="28" y="194" font-size="8.8" font-weight="600" fill="#444">발급처</text>
<rect x="218" y="178" width="544" height="26" fill="#fff" stroke="#dde1eb"/>
<text x="228" y="194" font-size="8.8" fill="#333">인터넷 / ●●●</text>
<rect x="18" y="204" width="200" height="26" fill="#f3f5f9" stroke="#dde1eb"/>
<text x="28" y="220" font-size="8.8" font-weight="600" fill="#444">발급상태</text>
<rect x="218" y="204" width="544" height="26" fill="#fff" stroke="#dde1eb"/>
<text x="228" y="220" font-size="8.8" fill="#333">정상발급</text>
<rect x="18" y="230" width="200" height="36" fill="#f3f5f9" stroke="#dde1eb"/>
<text x="28" y="246" font-size="8.8" font-weight="600" fill="#444">소인(사용여부)</text>
<text x="28" y="258" font-size="8.8" font-weight="600" fill="#444">소인자명/소인일시</text>
<rect x="218" y="230" width="544" height="36" fill="#fff" stroke="#dde1eb"/>
<text x="228" y="246" font-size="8.8" fill="#e0392b">미소인(미 사용)</text>
<text x="22" y="284" font-size="9" fill="#333">출력 가능한 프린터가 2 개 있습니다.</text>
<rect x="18" y="294" width="744" height="24" fill="#3a4a6a"/>
<text x="100" y="309" text-anchor="middle" font-size="9" font-weight="700" fill="#fff">프린터명</text>
<text x="700" y="309" text-anchor="middle" font-size="9" font-weight="700" fill="#fff">가능여부</text>
<rect x="18" y="318" width="744" height="24" fill="#f0fff6" stroke="#dde1eb"/>
<text x="28" y="333" font-size="9" fill="#333">EPSON ●●●●●●●●</text>
<rect x="660" y="322" width="84" height="16" rx="3" fill="#e8faf0" stroke="#27ae60"/>
<text x="702" y="333" text-anchor="middle" font-size="8.5" font-weight="700" fill="#27ae60">사용 가능</text>
<rect x="18" y="342" width="744" height="24" fill="#fff" stroke="#dde1eb"/>
<text x="28" y="357" font-size="9" fill="#333">HP ●●●●●</text>
<rect x="660" y="346" width="84" height="16" rx="3" fill="#f5f5f5" stroke="#999"/>
<text x="702" y="357" text-anchor="middle" font-size="8.5" font-weight="700" fill="#999">사용불가</text>
<rect x="18" y="366" width="744" height="24" fill="#fff" stroke="#dde1eb"/>
<text x="28" y="381" font-size="9" fill="#333">Samsung ●●●●●</text>
<rect x="660" y="370" width="84" height="16" rx="3" fill="#f5f5f5" stroke="#999"/>
<text x="702" y="381" text-anchor="middle" font-size="8.5" font-weight="700" fill="#999">사용불가</text>
<text x="22" y="402" font-size="8.5" fill="#e0392b">전자수입인지 인쇄 수량에 따라 생성, 출력까지 1분 내외의 시간이 소요됩니다. 프린터 출력이 끝나면 팝업창을 종료하여 주시기 바랍니다.</text>
<rect x="290" y="416" width="80" height="26" rx="3" fill="#7a8595"/><text x="330" y="433" text-anchor="middle" font-size="9.5" font-weight="700" fill="#fff">테스트 출력</text>
<rect x="400" y="416" width="70" height="26" rx="3" fill="url(#btnBlue)"/><text x="435" y="433" text-anchor="middle" font-size="12" font-weight="700" fill="#fff">출력</text>
<rect x="398" y="414" width="74" height="30" rx="3" fill="none" stroke="#e0392b" stroke-width="2" stroke-dasharray="5 3"/><circle cx="398" cy="414" r="11" fill="#e0392b"/><text x="398" y="418" text-anchor="middle" font-size="10" font-weight="700" fill="#fff">1</text>
<rect x="0" y="436" width="780" height="520" fill="#00000030"/>
<rect x="150" y="456" width="480" height="170" rx="4" fill="#fff" stroke="#9aa3b4" stroke-width="1.5"/>
<rect x="150" y="456" width="480" height="34" rx="4" fill="#3a6fb5"/>
<rect x="150" y="476" width="480" height="14" fill="#3a6fb5"/>
<text x="166" y="478" font-size="12" font-weight="700" fill="#fff">출력 확인</text>
<text x="390" y="508" text-anchor="middle" font-size="11" font-weight="700" fill="#e07020">1회에 한하여 출력되므로 반드시 프린터 상태 확인</text>
<text x="390" y="526" text-anchor="middle" font-size="11" font-weight="700" fill="#e07020">및 테스트 인쇄 후 출력하시기 바랍니다.</text>
<text x="390" y="544" text-anchor="middle" font-size="11" font-weight="700" fill="#e07020">[확인]을 누르면 인쇄를 취소할 수 없습니다.</text>
<text x="390" y="562" text-anchor="middle" font-size="11" font-weight="700" fill="#e07020">정말 출력하시겠습니까?</text>
<rect x="310" y="584" width="70" height="28" rx="3" fill="url(#btnBlue)"/><text x="345" y="602" text-anchor="middle" font-size="12" font-weight="700" fill="#fff">확인</text>
<rect x="400" y="584" width="70" height="28" rx="3" fill="url(#btnBlue)"/><text x="435" y="602" text-anchor="middle" font-size="12" font-weight="700" fill="#fff">취소</text>
<rect x="308" y="582" width="74" height="32" rx="3" fill="none" stroke="#e0392b" stroke-width="2" stroke-dasharray="5 3"/><circle cx="308" cy="582" r="11" fill="#e0392b"/><text x="308" y="586" text-anchor="middle" font-size="10" font-weight="700" fill="#fff">2</text>
<text x="390" y="512" text-anchor="middle" font-size="8" fill="#c0c5d0">(이해를 돕기 위한 재현 이미지)</text>
</svg>