<svg viewBox="0 0 780 500" xmlns="http://www.w3.org/2000/svg" font-family="'Malgun Gothic','Noto Sans KR',sans-serif">
<defs>
  <linearGradient id="hdrGrad" x1="0" y1="0" x2="1" y2="0">
    <stop offset="0" stop-color="#1155a5"/><stop offset="1" stop-color="#1a4ca0"/>
  </linearGradient>
  <linearGradient id="bannerGrad" x1="0" y1="0" x2="1" y2="0">
    <stop offset="0" stop-color="#0d3f8a"/><stop offset="1" stop-color="#1a6dc0"/>
  </linearGradient>
  <linearGradient id="btnBlue" x1="0" y1="0" x2="0" y2="1">
    <stop offset="0" stop-color="#3d83dd"/><stop offset="1" stop-color="#2a6fc9"/>
  </linearGradient>
  <linearGradient id="btnGreen" x1="0" y1="0" x2="0" y2="1">
    <stop offset="0" stop-color="#3eb87c"/><stop offset="1" stop-color="#2a9a65"/>
  </linearGradient>
  <linearGradient id="step1Grad" x1="0" y1="0" x2="1" y2="0">
    <stop offset="0" stop-color="#e0e5ee"/><stop offset="1" stop-color="#c5cce0"/>
  </linearGradient>
  <linearGradient id="step2Grad" x1="0" y1="0" x2="1" y2="0">
    <stop offset="0" stop-color="#1a6dc0"/><stop offset="1" stop-color="#2a83e0"/>
  </linearGradient>
</defs>
<rect x="0" y="0" width="780" height="500" fill="#e8ecf4"/>
<rect x="10" y="10" width="760" height="480" fill="#fff" stroke="#c5ccd8" rx="0"/>
<rect x="10" y="10" width="760" height="52" fill="url(#hdrGrad)"/><text x="26" y="33" font-size="16" font-weight="900" fill="#fff" letter-spacing="-0.5">전자수입인지</text><text x="26" y="50" font-size="8.5" fill="#93b8e8">전자수입인지.kr</text><circle cx="655" cy="36" r="12" fill="#003478"/><path d="M643,36 A12,12 0 0,1 667,36 A6.0,6.0 0 0,0 655,36 A6.0,6.0 0 0,0 643,36 Z" fill="#C60C30"/><circle cx="655" cy="36" r="12" fill="none" stroke="#ffffff50" stroke-width="1"/><text x="672" y="33" font-size="9.5" font-weight="700" fill="#fff">재정경제부</text>
<rect x="10" y="62" width="760" height="70" fill="url(#bannerGrad)"/>
<circle cx="70" cy="97" r="24" fill="#003478"/><path d="M46,97 A24,24 0 0,1 94,97 A12.0,12.0 0 0,0 70,97 A12.0,12.0 0 0,0 46,97 Z" fill="#C60C30"/><circle cx="70" cy="97" r="24" fill="none" stroke="#ffffff50" stroke-width="1"/>
<text x="108" y="90" font-size="10" font-weight="700" fill="#fff">안전하고 편리한</text>
<text x="108" y="108" font-size="16" font-weight="900" fill="#fff">전자수입인지 납부서비스</text>
<text x="108" y="124" font-size="10" fill="#a8c8ef">금융결제원이 함께합니다.</text>
<rect x="590" y="72" width="40" height="50" rx="4" fill="#ffffff20"/>
<text x="610" y="94" text-anchor="middle" font-size="8" fill="#fff">행정</text>
<text x="610" y="106" text-anchor="middle" font-size="8" fill="#fff">기관용</text>
<rect x="645" y="72" width="40" height="50" rx="4" fill="#ffffff20"/>
<text x="665" y="94" text-anchor="middle" font-size="8" fill="#fff">판매</text>
<text x="665" y="106" text-anchor="middle" font-size="8" fill="#fff">인용</text>
<rect x="700" y="72" width="40" height="50" rx="4" fill="#ffffff20"/>
<text x="720" y="94" text-anchor="middle" font-size="8" fill="#fff">금융</text>
<text x="720" y="106" text-anchor="middle" font-size="8" fill="#fff">회사용</text>
<text x="20" y="146" font-size="9" fill="#555">「수입인지에 관한 법률 제2조」  전자수입인지는 발행 형태 및 과세문서의 특성에 따라 다음 각 호로 구분한다.</text>
<text x="20" y="162" font-size="8.5" fill="#444">1. 종이문서용 전자수입인지 : 종이문서에 첨부하는 출력용 형태의 전자수입인지</text>
<text x="20" y="176" font-size="8.5" fill="#444">2. 전자문서용 전자수입인지 : 전자문서에 첨부하는 전자적 정보형태의 전자수입인지</text>
<text x="36" y="190" font-size="8" fill="#888">* 예 : 전자계약시스템을 통해 체결되는 전자문서 등</text>
<rect x="20" y="208" width="350" height="170" rx="4" fill="#e8f2ff" stroke="#1d6fd0" stroke-width="2.5"/>
<text x="195" y="236" text-anchor="middle" font-size="12" font-weight="700" fill="#e0392b">종이문서용 </text>
<text x="195" y="252" text-anchor="middle" font-size="12" font-weight="700" fill="#1a4ca0">전자수입인지</text>
<circle cx="195" cy="286" r="46" fill="#5b9bd5" opacity="0.25"/>
<rect x="173" y="260" width="44" height="52" rx="3" fill="#546e7a"/>
<rect x="179" y="266" width="32" height="36" rx="1" fill="#fff"/>
<rect x="183" y="272" width="20" height="2.5" rx="1" fill="#9bb0be"/>
<rect x="183" y="280" width="24" height="2.5" rx="1" fill="#9bb0be"/>
<rect x="183" y="288" width="20" height="2.5" rx="1" fill="#9bb0be"/>
<rect x="183" y="296" width="24" height="2.5" rx="1" fill="#9bb0be"/>
<rect x="187" y="256" width="16" height="9" rx="2" fill="#ffa726"/>
<rect x="209" y="276" width="8" height="20" rx="1" fill="#78909c"/>
<rect x="40" y="342" width="310" height="26" rx="3" fill="url(#btnBlue)"/><text x="195" y="359" text-anchor="middle" font-size="10" font-weight="700" fill="#fff">바로가기  ›</text>
<rect x="410" y="208" width="350" height="170" rx="4" fill="#fdf9e8" stroke="#d0c870" stroke-width="1"/>
<text x="585" y="236" text-anchor="middle" font-size="12" fill="#888">전자문서용</text>
<text x="585" y="252" text-anchor="middle" font-size="12" fill="#888">전자수입인지</text>
<circle cx="585" cy="286" r="46" fill="#ffc107" opacity="0.18"/>
<rect x="559" y="268" width="52" height="34" rx="3" fill="#e8a020"/>
<rect x="563" y="272" width="44" height="26" rx="1" fill="#fff5d0"/>
<rect x="555" y="302" width="60" height="5" rx="2" fill="#c88a10"/>
<rect x="430" y="342" width="310" height="26" rx="3" fill="#7a8595"/><text x="585" y="359" text-anchor="middle" font-size="10" font-weight="700" fill="#fff">바로가기  ›</text>
<rect x="18" y="206" width="354" height="174" rx="3" fill="none" stroke="#e0392b" stroke-width="2" stroke-dasharray="5 3"/><circle cx="18" cy="206" r="11" fill="#e0392b"/><text x="18" y="210" text-anchor="middle" font-size="12" font-weight="700" fill="#fff">1</text>
<text x="390" y="492" text-anchor="middle" font-size="8" fill="#c0c5d0">(이해를 돕기 위한 재현 이미지)</text>
</svg>