<svg viewBox="0 0 800 560" xmlns="http://www.w3.org/2000/svg" font-family="'Malgun Gothic','Noto Sans KR',sans-serif">
<defs>
  <linearGradient id="hdrGrad" x1="0" y1="0" x2="1" y2="0">
    <stop offset="0" stop-color="#1155a5"/><stop offset="1" stop-color="#1a4ca0"/>
  </linearGradient>
  <linearGradient id="bannerGrad" x1="0" y1="0" x2="1" y2="0">
    <stop offset="0" stop-color="#0d3f8a"/><stop offset="1" stop-color="#1a6dc0"/>
  </linearGradient>
  <linearGradient id="btnBlue" x1="0" y1="0" x2="0" y2="1">
    <stop offset="0" stop-color="#3d83dd"/><stop offset="1" stop-color="#2a6fc9"/>
  </linearGradient>
  <linearGradient id="btnGreen" x1="0" y1="0" x2="0" y2="1">
    <stop offset="0" stop-color="#3eb87c"/><stop offset="1" stop-color="#2a9a65"/>
  </linearGradient>
  <linearGradient id="step1Grad" x1="0" y1="0" x2="1" y2="0">
    <stop offset="0" stop-color="#e0e5ee"/><stop offset="1" stop-color="#c5cce0"/>
  </linearGradient>
  <linearGradient id="step2Grad" x1="0" y1="0" x2="1" y2="0">
    <stop offset="0" stop-color="#1a6dc0"/><stop offset="1" stop-color="#2a83e0"/>
  </linearGradient>
</defs>
<rect x="0" y="0" width="800" height="560" fill="#e8ecf4"/>
<rect x="10" y="10" width="780" height="540" fill="#fff"/>
<rect x="10" y="10" width="780" height="52" fill="url(#hdrGrad)"/><text x="26" y="33" font-size="16" font-weight="900" fill="#fff" letter-spacing="-0.5">전자수입인지</text><text x="26" y="50" font-size="8.5" fill="#93b8e8">전자수입인지.kr</text><circle cx="675" cy="36" r="12" fill="#003478"/><path d="M663,36 A12,12 0 0,1 687,36 A6.0,6.0 0 0,0 675,36 A6.0,6.0 0 0,0 663,36 Z" fill="#C60C30"/><circle cx="675" cy="36" r="12" fill="none" stroke="#ffffff50" stroke-width="1"/><text x="692" y="33" font-size="9.5" font-weight="700" fill="#fff">재정경제부</text>
<rect x="10" y="62" width="140" height="488" fill="#2c3550"/><rect x="10" y="62" width="140" height="38" fill="#1e2a40"/><text x="22" y="78" font-size="10" font-weight="700" fill="#fff">구매자용</text><text x="22" y="92" font-size="8" fill="#7a90b8">Customer use</text><rect x="10" y="113" width="140" height="24" fill="#1d6fd0"/><rect x="10" y="113" width="3" height="24" fill="#5ab8ff"/><text x="24" y="129" font-size="9" font-weight="700" fill="#fff">구매</text><rect x="10" y="138" width="140" height="24" fill="#2c3550"/><text x="24" y="154" font-size="9" fill="#a0b4d0">조회</text><rect x="10" y="163" width="140" height="24" fill="#2c3550"/><text x="24" y="179" font-size="9" fill="#a0b4d0">발급내역</text><rect x="10" y="188" width="140" height="24" fill="#2c3550"/><text x="24" y="204" font-size="9" fill="#a0b4d0">소인</text><rect x="10" y="213" width="140" height="24" fill="#2c3550"/><text x="24" y="229" font-size="9" fill="#a0b4d0">전자수입인지 정보 입력</text><rect x="10" y="238" width="140" height="24" fill="#2c3550"/><text x="24" y="254" font-size="9" fill="#a0b4d0">분할 구매내역 조회 소인</text><rect x="18" y="470" width="124" height="26" rx="3" fill="#1e2a40" stroke="#3a4a60"/><text x="24" y="486" font-size="8.2" fill="#7a90b8">🔵 사이트 이용방법 안내</text><rect x="18" y="502" width="124" height="26" rx="3" fill="#1e2a40" stroke="#3a4a60"/><text x="24" y="518" font-size="8.2" fill="#7a90b8">🔒 인증서 등록 안내</text>
<rect x="158" y="70" width="628" height="472" fill="#fff" stroke="#dde1eb"/>
<text x="174" y="94" font-size="12" font-weight="700" fill="#1a3a6a">인지세 과세문서 및 세액을 알려드립니다.</text>
<text x="770" y="94" text-anchor="end" font-size="8.5" fill="#1d6fd0">인지세 과세문서 안내</text>
<line x1="166" y1="102" x2="778" y2="102" stroke="#e0e4ec" stroke-width="1"/>
<text x="174" y="114" font-size="11" font-weight="700" fill="#333">납부정보</text>
<rect x="166" y="124" width="612" height="26" fill="#3a4a6a"/>
<text x="206" y="140" text-anchor="middle" font-size="8.8" font-weight="700" fill="#fff">용도</text>
<line x1="246" y1="124" x2="246" y2="150" stroke="#ffffff50"/>
<text x="316" y="140" text-anchor="middle" font-size="8.8" font-weight="700" fill="#fff">과세문서 종류</text>
<line x1="386" y1="124" x2="386" y2="150" stroke="#ffffff50"/>
<text x="446" y="140" text-anchor="middle" font-size="8.8" font-weight="700" fill="#fff">금액</text>
<line x1="506" y1="124" x2="506" y2="150" stroke="#ffffff50"/>
<text x="533" y="140" text-anchor="middle" font-size="8.8" font-weight="700" fill="#fff">건수</text>
<line x1="561" y1="124" x2="561" y2="150" stroke="#ffffff50"/>
<text x="611" y="140" text-anchor="middle" font-size="8.8" font-weight="700" fill="#fff">합계금액</text>
<rect x="166" y="150" width="612" height="30" fill="#fff" stroke="#dde1eb"/>
<rect x="168" y="153" width="76" height="24" rx="2" fill="#ebf3ff" stroke="#b8d0f0"/>
<text x="174" y="168" font-size="8.8" fill="#1d6fd0">인지세 납부</text>
<text x="236" y="168" font-size="7" fill="#888">▼</text>
<line x1="246" y1="150" x2="246" y2="180" stroke="#dde1eb"/>
<rect x="248" y="153" width="136" height="24" rx="2" fill="#ebf3ff" stroke="#b8d0f0"/>
<text x="254" y="168" font-size="8.8" fill="#1d6fd0">1.부동산 등 소</text>
<text x="376" y="168" font-size="7" fill="#888">▼</text>
<line x1="386" y1="150" x2="386" y2="180" stroke="#dde1eb"/>
<rect x="388" y="153" width="116" height="24" rx="2" fill="#fff" stroke="#d4d9e4"/>
<text x="394" y="168" font-size="8.8" fill="#333">150,000</text>
<line x1="506" y1="150" x2="506" y2="180" stroke="#dde1eb"/>
<rect x="508" y="153" width="51" height="24" rx="2" fill="#fff" stroke="#d4d9e4"/>
<text x="514" y="168" font-size="8.8" fill="#333">1</text>
<line x1="561" y1="150" x2="561" y2="180" stroke="#dde1eb"/>
<rect x="563" y="153" width="96" height="24" rx="2" fill="#fff" stroke="#d4d9e4"/>
<text x="569" y="168" font-size="8.8" fill="#333">150,000</text>
<line x1="661" y1="150" x2="661" y2="180" stroke="#dde1eb"/>
<rect x="166" y="180" width="612" height="30" fill="#fafbfc" stroke="#e8eaef"/>
<rect x="168" y="184" width="76" height="22" rx="2" fill="#f5f8ff" stroke="#b0bcd4"/><text x="176" y="198" font-size="8.5" fill="#555">---- 선택 ----</text><text x="230" y="199" font-size="8" fill="#666">▼</text>
<rect x="248" y="184" width="136" height="22" rx="2" fill="#f5f8ff" stroke="#b0bcd4"/><text x="256" y="198" font-size="8.5" fill="#555">---- 선택 ----</text><text x="370" y="199" font-size="8" fill="#666">▼</text>
<rect x="388" y="184" width="116" height="22" rx="2" fill="#f5f8ff" stroke="#b0bcd4"/><text x="396" y="198" font-size="8.5" fill="#555">---- 선택 ----</text><text x="490" y="199" font-size="8" fill="#666">▼</text>
<rect x="508" y="184" width="51" height="22" rx="2" fill="#f5f8ff" stroke="#b0bcd4"/><text x="516" y="198" font-size="8.5" fill="#555">---- 선택 ----</text><text x="545" y="199" font-size="8" fill="#666">▼</text>
<rect x="563" y="184" width="96" height="22" rx="2" fill="#f5f8ff" stroke="#b0bcd4"/><text x="571" y="198" font-size="8.5" fill="#555">---- 선택 ----</text><text x="645" y="199" font-size="8" fill="#666">▼</text>
<rect x="166" y="210" width="612" height="30" fill="#fafbfc" stroke="#e8eaef"/>
<rect x="168" y="214" width="76" height="22" rx="2" fill="#f5f8ff" stroke="#b0bcd4"/><text x="176" y="228" font-size="8.5" fill="#555">---- 선택 ----</text><text x="230" y="229" font-size="8" fill="#666">▼</text>
<rect x="248" y="214" width="136" height="22" rx="2" fill="#f5f8ff" stroke="#b0bcd4"/><text x="256" y="228" font-size="8.5" fill="#555">---- 선택 ----</text><text x="370" y="229" font-size="8" fill="#666">▼</text>
<rect x="388" y="214" width="116" height="22" rx="2" fill="#f5f8ff" stroke="#b0bcd4"/><text x="396" y="228" font-size="8.5" fill="#555">---- 선택 ----</text><text x="490" y="229" font-size="8" fill="#666">▼</text>
<rect x="508" y="214" width="51" height="22" rx="2" fill="#f5f8ff" stroke="#b0bcd4"/><text x="516" y="228" font-size="8.5" fill="#555">---- 선택 ----</text><text x="545" y="229" font-size="8" fill="#666">▼</text>
<rect x="563" y="214" width="96" height="22" rx="2" fill="#f5f8ff" stroke="#b0bcd4"/><text x="571" y="228" font-size="8.5" fill="#555">---- 선택 ----</text><text x="645" y="229" font-size="8" fill="#666">▼</text>
<rect x="166" y="240" width="612" height="30" fill="#fafbfc" stroke="#e8eaef"/>
<rect x="168" y="244" width="76" height="22" rx="2" fill="#f5f8ff" stroke="#b0bcd4"/><text x="176" y="258" font-size="8.5" fill="#555">---- 선택 ----</text><text x="230" y="259" font-size="8" fill="#666">▼</text>
<rect x="248" y="244" width="136" height="22" rx="2" fill="#f5f8ff" stroke="#b0bcd4"/><text x="256" y="258" font-size="8.5" fill="#555">---- 선택 ----</text><text x="370" y="259" font-size="8" fill="#666">▼</text>
<rect x="388" y="244" width="116" height="22" rx="2" fill="#f5f8ff" stroke="#b0bcd4"/><text x="396" y="258" font-size="8.5" fill="#555">---- 선택 ----</text><text x="490" y="259" font-size="8" fill="#666">▼</text>
<rect x="508" y="244" width="51" height="22" rx="2" fill="#f5f8ff" stroke="#b0bcd4"/><text x="516" y="258" font-size="8.5" fill="#555">---- 선택 ----</text><text x="545" y="259" font-size="8" fill="#666">▼</text>
<rect x="563" y="244" width="96" height="22" rx="2" fill="#f5f8ff" stroke="#b0bcd4"/><text x="571" y="258" font-size="8.5" fill="#555">---- 선택 ----</text><text x="645" y="259" font-size="8" fill="#666">▼</text>
<rect x="166" y="270" width="612" height="30" fill="#fafbfc" stroke="#e8eaef"/>
<rect x="168" y="274" width="76" height="22" rx="2" fill="#f5f8ff" stroke="#b0bcd4"/><text x="176" y="288" font-size="8.5" fill="#555">---- 선택 ----</text><text x="230" y="289" font-size="8" fill="#666">▼</text>
<rect x="248" y="274" width="136" height="22" rx="2" fill="#f5f8ff" stroke="#b0bcd4"/><text x="256" y="288" font-size="8.5" fill="#555">---- 선택 ----</text><text x="370" y="289" font-size="8" fill="#666">▼</text>
<rect x="388" y="274" width="116" height="22" rx="2" fill="#f5f8ff" stroke="#b0bcd4"/><text x="396" y="288" font-size="8.5" fill="#555">---- 선택 ----</text><text x="490" y="289" font-size="8" fill="#666">▼</text>
<rect x="508" y="274" width="51" height="22" rx="2" fill="#f5f8ff" stroke="#b0bcd4"/><text x="516" y="288" font-size="8.5" fill="#555">---- 선택 ----</text><text x="545" y="289" font-size="8" fill="#666">▼</text>
<rect x="563" y="274" width="96" height="22" rx="2" fill="#f5f8ff" stroke="#b0bcd4"/><text x="571" y="288" font-size="8.5" fill="#555">---- 선택 ----</text><text x="645" y="289" font-size="8" fill="#666">▼</text>
<rect x="166" y="300" width="612" height="26" fill="#f0f3fa" stroke="#dde1eb"/>
<text x="178" y="316" font-size="9" font-weight="700" fill="#333">총 금액</text>
<rect x="228" y="303" width="140" height="20" rx="2" fill="#fff" stroke="#c5ccd8"/>
<text x="238" y="316" font-size="9" fill="#333">150,000</text>
<text x="472" y="316" font-size="9" font-weight="700" fill="#333">총 건수</text>
<rect x="522" y="303" width="70" height="20" rx="2" fill="#fff" stroke="#c5ccd8"/>
<text x="532" y="316" font-size="9" fill="#333">1</text>
<rect x="432" y="334" width="80" height="28" rx="3" fill="url(#btnBlue)"/><text x="472" y="352" text-anchor="middle" font-size="11" font-weight="700" fill="#fff">확인</text>
<line x1="166" y1="380" x2="778" y2="380" stroke="#dde1eb" stroke-width="1"/>
<text x="174" y="392" font-size="10" font-weight="700" fill="#2c3550">※ 인지세 금액 기준 (수입인지법 제3조)</text>
<text x="174" y="408" font-size="9" fill="#e0392b">※ 주택의 소유권이전에 관한 증서로서 기재금액 1억원 이하인 것은 인지세 면제 (인지세법 제6조 제5호)</text>
<rect x="174" y="422" width="596" height="24" fill="#3a4a6a"/>
<text x="372" y="437" text-anchor="middle" font-size="9" font-weight="700" fill="#fff">과세문서</text>
<text x="621" y="437" text-anchor="middle" font-size="9" font-weight="700" fill="#fff">기재금액 (매매가)</text>
<text x="720" y="437" text-anchor="middle" font-size="9" font-weight="700" fill="#fff">세액</text>
<line x1="472" y1="422" x2="472" y2="566" stroke="#ffffff40"/>
<rect x="174" y="446" width="298" height="120" fill="#f5f7fc" stroke="#dde1eb"/>
<text x="323" y="510" text-anchor="middle" font-size="8.5" fill="#333">부동산, 선박, 항공기의</text>
<text x="323" y="522" text-anchor="middle" font-size="8.5" fill="#333">소유권이전에 관한 증서</text>
<rect x="472" y="446" width="248" height="24" fill="#fff" stroke="#dde1eb"/>
<text x="480" y="461" font-size="8.5" fill="#333">1천만원 초과 ~ 3천만원 이하</text>
<rect x="720" y="446" width="50" height="24" fill="#fff" stroke="#dde1eb"/>
<text x="745" y="461" text-anchor="middle" font-size="9" font-weight="700" fill="#1d6fd0">2만원</text>
<rect x="472" y="470" width="248" height="24" fill="#fff" stroke="#dde1eb"/>
<text x="480" y="485" font-size="8.5" fill="#333">3천만원 초과 ~ 5천만원 이하</text>
<rect x="720" y="470" width="50" height="24" fill="#fff" stroke="#dde1eb"/>
<text x="745" y="485" text-anchor="middle" font-size="9" font-weight="700" fill="#1d6fd0">4만원</text>
<rect x="472" y="494" width="248" height="24" fill="#fff" stroke="#dde1eb"/>
<text x="480" y="509" font-size="8.5" fill="#333">5천만원 초과 ~ 1억원 이하</text>
<rect x="720" y="494" width="50" height="24" fill="#fff" stroke="#dde1eb"/>
<text x="745" y="509" text-anchor="middle" font-size="9" font-weight="700" fill="#1d6fd0">7만원</text>
<rect x="472" y="518" width="248" height="24" fill="#f0f7ff" stroke="#dde1eb"/>
<text x="480" y="533" font-size="8.5" fill="#333">★ 1억원 초과 ~ 10억원 이하 (아파트 주력)</text>
<rect x="720" y="518" width="50" height="24" fill="#f0f7ff" stroke="#dde1eb"/>
<text x="745" y="533" text-anchor="middle" font-size="9" font-weight="700" fill="#1d6fd0">15만원</text>
<rect x="472" y="542" width="248" height="24" fill="#f0f7ff" stroke="#dde1eb"/>
<text x="480" y="557" font-size="8.5" fill="#333">★ 10억원 초과</text>
<rect x="720" y="542" width="50" height="24" fill="#f0f7ff" stroke="#dde1eb"/>
<text x="745" y="557" text-anchor="middle" font-size="9" font-weight="700" fill="#1d6fd0">35만원</text>
<rect x="386" y="150" width="120" height="30" rx="3" fill="none" stroke="#e0392b" stroke-width="2" stroke-dasharray="5 3"/><circle cx="386" cy="150" r="11" fill="#e0392b"/><text x="386" y="154" text-anchor="middle" font-size="12" font-weight="700" fill="#fff">1</text>
<rect x="430" y="334" width="84" height="30" rx="3" fill="none" stroke="#e0392b" stroke-width="2" stroke-dasharray="5 3"/><circle cx="430" cy="334" r="11" fill="#e0392b"/><text x="430" y="338" text-anchor="middle" font-size="12" font-weight="700" fill="#fff">2</text>
<text x="400" y="552" text-anchor="middle" font-size="8" fill="#c0c5d0">(이해를 돕기 위한 재현 이미지)</text>
</svg>