<svg viewBox="0 0 760 620" xmlns="http://www.w3.org/2000/svg" font-family="'Malgun Gothic','Noto Sans KR',sans-serif">
<defs>
  <linearGradient id="hdrGrad" x1="0" y1="0" x2="1" y2="0">
    <stop offset="0" stop-color="#1155a5"/><stop offset="1" stop-color="#1a4ca0"/>
  </linearGradient>
  <linearGradient id="bannerGrad" x1="0" y1="0" x2="1" y2="0">
    <stop offset="0" stop-color="#0d3f8a"/><stop offset="1" stop-color="#1a6dc0"/>
  </linearGradient>
  <linearGradient id="btnBlue" x1="0" y1="0" x2="0" y2="1">
    <stop offset="0" stop-color="#3d83dd"/><stop offset="1" stop-color="#2a6fc9"/>
  </linearGradient>
  <linearGradient id="btnGreen" x1="0" y1="0" x2="0" y2="1">
    <stop offset="0" stop-color="#3eb87c"/><stop offset="1" stop-color="#2a9a65"/>
  </linearGradient>
  <linearGradient id="step2Grad" x1="0" y1="0" x2="1" y2="0">
    <stop offset="0" stop-color="#1a6dc0"/><stop offset="1" stop-color="#2a83e0"/>
  </linearGradient>
</defs>
<rect x="0" y="0" width="760" height="620" fill="#e8ecf4"/><rect x="24" y="26" width="720" height="580" fill="#00000018"/><rect x="20" y="20" width="720" height="580" fill="#fff" stroke="#c5ccd8"/><rect x="40" y="34" width="252" height="30" rx="3" fill="#d8dde8"/><text x="166.0" y="54" text-anchor="middle" font-size="9" fill="#888">1  납부정보입력</text><text x="301" y="53" font-size="11" fill="#9aa3b4">&#9654;</text><rect x="300" y="34" width="220" height="30" rx="3" fill="url(#step2Grad)"/><text x="410.0" y="54" text-anchor="middle" font-size="9.5" font-weight="700" fill="#fff">2  입력정보확인</text><text x="529" y="53" font-size="11" fill="#9aa3b4">&#9654;</text><rect x="528" y="34" width="232" height="30" rx="3" fill="#d8dde8"/><text x="644.0" y="54" text-anchor="middle" font-size="9" fill="#888">3  구매결과확인 및 발급</text><rect x="28" y="94" width="704" height="30" fill="#fff" stroke="#dde1eb"/><text x="40" y="114" font-size="9" font-weight="700" fill="#333">총 건수</text><text x="110" y="114" font-size="9" fill="#333">1 건</text><text x="240" y="114" font-size="9" font-weight="700" fill="#333">총 금액</text><text x="310" y="114" font-size="9" fill="#333">150,000 원</text><rect x="28" y="134" width="704" height="28" fill="#fff" stroke="#dde1eb"/><text x="40" y="153" font-size="9" font-weight="700" fill="#333">결제수단</text><circle cx="160" cy="148" r="6" fill="#fff" stroke="#9aa3b4" stroke-width="1.5"/><text x="172" y="152" font-size="9" fill="#999">계좌이체</text><circle cx="260" cy="148" r="6" fill="#fff" stroke="#1d6fd0" stroke-width="1.5"/><circle cx="260" cy="148" r="3" fill="#1d6fd0"/><text x="272" y="152" font-size="9" font-weight="700" fill="#1d6fd0">신용카드</text><text x="36" y="178" font-size="10" font-weight="700" fill="#333">카드결제정보</text><rect x="28" y="190" width="200" height="26" fill="#f3f5f9" stroke="#dde1eb"/><text x="40" y="207" font-size="8.6" font-weight="600" fill="#444">카드종류 선택</text><rect x="228" y="190" width="504" height="26" fill="#fff" stroke="#dde1eb"/><text x="240" y="207" font-size="8.6" fill="#333">●개인카드   ○사업자용카드</text><rect x="28" y="217" width="200" height="26" fill="#f3f5f9" stroke="#dde1eb"/><text x="40" y="234" font-size="8.6" font-weight="600" fill="#444">신용카드 선택</text><rect x="228" y="217" width="240" height="26" fill="#fff" stroke="#a8afc0" stroke-width="1"/><text x="234" y="234" font-size="8.6" fill="#999">카드를 선택하세요</text><line x1="440" y1="219" x2="440" y2="241" stroke="#d0d4de"/><rect x="440" y="218" width="27" height="24" fill="#f2f3f6"/><path d="M449.5,228 L458.5,228 L454,233 Z" fill="#5a6172"/><rect x="28" y="244" width="200" height="26" fill="#f3f5f9" stroke="#dde1eb"/><text x="40" y="261" font-size="8.6" font-weight="600" fill="#444">할부기간 선택</text><rect x="228" y="244" width="240" height="26" fill="#fff" stroke="#a8afc0" stroke-width="1"/><text x="234" y="261" font-size="8.6" fill="#999">할부기간 선택</text><line x1="440" y1="246" x2="440" y2="268" stroke="#d0d4de"/><rect x="440" y="245" width="27" height="24" fill="#f2f3f6"/><path d="M449.5,255 L458.5,255 L454,260 Z" fill="#5a6172"/><text x="474" y="261" font-size="8" fill="#888">(5만원 미만 할부 불가)</text><rect x="28" y="190" width="704" height="81" rx="3" fill="none" stroke="#e0392b" stroke-width="2" stroke-dasharray="5 3"/><circle cx="28" cy="190" r="11" fill="#e0392b"/><text x="28" y="194" text-anchor="middle" font-size="10" font-weight="700" fill="#fff">1</text><rect x="28" y="277" width="200" height="26" fill="#f3f5f9" stroke="#dde1eb"/><text x="40" y="294" font-size="8.6" font-weight="600" fill="#444">카드번호</text><rect x="228" y="277" width="504" height="26" fill="#fff" stroke="#dde1eb"/><text x="240" y="294" font-size="8.6" fill="#333">____ - ____ - ____ - ____</text><rect x="28" y="304" width="200" height="26" fill="#f3f5f9" stroke="#dde1eb"/><text x="40" y="321" font-size="8.6" font-weight="600" fill="#444">유효기간</text><rect x="228" y="304" width="504" height="26" fill="#fff" stroke="#dde1eb"/><text x="240" y="321" font-size="8.6" fill="#333">__ 월  __ 년</text><rect x="28" y="331" width="200" height="26" fill="#f3f5f9" stroke="#dde1eb"/><text x="40" y="348" font-size="8.6" font-weight="600" fill="#444">구매자 성명</text><rect x="228" y="331" width="504" height="26" fill="#fff" stroke="#dde1eb"/><rect x="28" y="358" width="200" height="26" fill="#f3f5f9" stroke="#dde1eb"/><text x="40" y="375" font-size="8.6" font-weight="600" fill="#444">구매자 주민등록번호</text><rect x="228" y="358" width="504" height="26" fill="#fff" stroke="#dde1eb"/><text x="240" y="375" font-size="8.6" fill="#333">______ - _______</text><rect x="28" y="385" width="200" height="26" fill="#f3f5f9" stroke="#dde1eb"/><text x="40" y="402" font-size="8.6" font-weight="600" fill="#444">구매자 연락처</text><rect x="228" y="385" width="504" height="26" fill="#fff" stroke="#dde1eb"/><rect x="28" y="277" width="704" height="135" rx="3" fill="none" stroke="#e0392b" stroke-width="2" stroke-dasharray="5 3"/><circle cx="28" cy="277" r="11" fill="#e0392b"/><text x="28" y="281" text-anchor="middle" font-size="10" font-weight="700" fill="#fff">2</text><rect x="306.0" y="434" width="62" height="28" rx="3" fill="url(#btnBlue)"/><text x="337.0" y="452.0" text-anchor="middle" font-size="11" font-weight="700" fill="#fff">납부</text><rect x="386.0" y="434" width="62" height="28" rx="3" fill="#fff" stroke="#9aa3b4"/><text x="417.0" y="452" text-anchor="middle" font-size="10" fill="#666">취소</text><rect x="302.0" y="432" width="148" height="32" rx="3" fill="none" stroke="#e0392b" stroke-width="2" stroke-dasharray="5 3"/><circle cx="302.0" cy="432" r="11" fill="#e0392b"/><text x="302.0" y="436" text-anchor="middle" font-size="10" font-weight="700" fill="#fff">3</text><text x="380.0" y="610" text-anchor="middle" font-size="8" fill="#c0c5d0">(이해를 돕기 위한 재현 이미지)</text></svg>