<svg viewBox="0 0 780 560" xmlns="http://www.w3.org/2000/svg" font-family="'Malgun Gothic','Noto Sans KR',sans-serif">
<defs>
  <linearGradient id="hdrGrad" x1="0" y1="0" x2="1" y2="0">
    <stop offset="0" stop-color="#1155a5"/><stop offset="1" stop-color="#1a4ca0"/>
  </linearGradient>
  <linearGradient id="bannerGrad" x1="0" y1="0" x2="1" y2="0">
    <stop offset="0" stop-color="#0d3f8a"/><stop offset="1" stop-color="#1a6dc0"/>
  </linearGradient>
  <linearGradient id="btnBlue" x1="0" y1="0" x2="0" y2="1">
    <stop offset="0" stop-color="#3d83dd"/><stop offset="1" stop-color="#2a6fc9"/>
  </linearGradient>
  <linearGradient id="btnGreen" x1="0" y1="0" x2="0" y2="1">
    <stop offset="0" stop-color="#3eb87c"/><stop offset="1" stop-color="#2a9a65"/>
  </linearGradient>
  <linearGradient id="step2Grad" x1="0" y1="0" x2="1" y2="0">
    <stop offset="0" stop-color="#1a6dc0"/><stop offset="1" stop-color="#2a83e0"/>
  </linearGradient>
</defs>
<rect x="0" y="0" width="780" height="560" fill="#e8ecf4"/><rect x="10" y="10" width="760" height="540" fill="#fff" stroke="#c5ccd8"/><rect x="10" y="10" width="760" height="44" fill="#fff" stroke="#e8eaef"/><text x="26" y="30" font-size="14" font-weight="900" fill="#1a3a6a" letter-spacing="-0.5">전자수입인지</text><text x="26" y="44" font-size="7.5" fill="#8a95a8">전자수입인지.kr</text><text x="300" y="32" font-size="9.5" fill="#3a3a3a">구매</text><text x="340" y="32" font-size="9.5" fill="#3a3a3a">조회</text><text x="380" y="32" font-size="9.5" fill="#3a3a3a">발급내역</text><text x="440" y="32" font-size="9.5" fill="#3a3a3a">소인</text><text x="480" y="32" font-size="9.5" fill="#3a3a3a">서비스안내</text><text x="550" y="32" font-size="9.5" fill="#3a3a3a">고객센터</text><circle cx="700" cy="32" r="11" fill="#003478"/><path d="M689,32 A11,11 0 0,1 711,32 A5.5,5.5 0 0,0 700,32 A5.5,5.5 0 0,0 689,32 Z" fill="#C60C30"/><circle cx="700" cy="32" r="11" fill="none" stroke="#ffffff50" stroke-width="1"/><text x="717" y="29" font-size="9" font-weight="700" fill="#1a3a6a">재정경제부</text><line x1="10" y1="54" x2="770" y2="54" stroke="#1a3a6a" stroke-width="2"/><rect x="20" y="70" width="240" height="196" fill="url(#btnBlue)"/><circle cx="140" cy="122" r="26" fill="#ffffff25"/><text x="140" y="130" text-anchor="middle" font-size="20" fill="#fff">💳</text><text x="140" y="176" text-anchor="middle" font-size="15" font-weight="900" fill="#fff">구매</text><text x="42" y="200" font-size="8.3" fill="#eaf2ff">계좌이체와 신용카드를</text><text x="42" y="214" font-size="8.3" fill="#eaf2ff">이용하여 전자수입인지를</text><text x="42" y="228" font-size="8.3" fill="#eaf2ff">구매할 수 있습니다.</text><rect x="270" y="70" width="240" height="196" fill="url(#btnGreen)"/><circle cx="390" cy="122" r="26" fill="#ffffff25"/><text x="390" y="130" text-anchor="middle" font-size="20" fill="#fff">🖨</text><text x="390" y="176" text-anchor="middle" font-size="15" font-weight="900" fill="#fff">발급</text><text x="292" y="200" font-size="8.3" fill="#eafff2">구매한 전자수입인지를</text><text x="292" y="214" font-size="8.3" fill="#eafff2">출력할 수 있습니다.</text><rect x="520" y="70" width="240" height="196" fill="url(#bannerGrad)"/><text x="536" y="102" font-size="9" font-weight="700" fill="#fff">안전하고 편리한</text><text x="536" y="120" font-size="13" font-weight="900" fill="#fff">전자수입인지</text><text x="536" y="136" font-size="13" font-weight="900" fill="#fff">납부서비스</text><text x="536" y="152" font-size="8" fill="#a8c8ef">금융결제원이 함께합니다</text><rect x="536" y="176" width="190" height="24" rx="3" fill="#ffffff18"/><text x="546" y="192" font-size="8" fill="#fff">행정기관용</text><rect x="536" y="206" width="190" height="24" rx="3" fill="#ffffff18"/><text x="546" y="222" font-size="8" fill="#fff">판매인용</text><rect x="536" y="236" width="190" height="24" rx="3" fill="#ffffff18"/><text x="546" y="252" font-size="8" fill="#fff">금융회사사용</text><rect x="20" y="282" width="240" height="90" fill="#eef2f9" stroke="#dde1eb"/><rect x="20" y="282" width="240" height="30" fill="#2c3550"/><text x="34" y="302" font-size="9" font-weight="700" fill="#fff">🔒 로그인</text><text x="34" y="326" font-size="8" fill="#555">· 회원가입</text><text x="34" y="342" font-size="8" fill="#555">· 아이디/비밀번호 찾기</text><text x="34" y="358" font-size="8" fill="#555">· 인증서 등록/안내</text><rect x="270" y="282" width="300" height="90" fill="#fff" stroke="#dde1eb"/><text x="284" y="300" font-size="9" font-weight="700" fill="#333">공지사항</text><line x1="270" y1="308" x2="570" y2="308" stroke="#eee"/><text x="284" y="324" font-size="7.6" fill="#666">· 전자수입인지 통합보안프로그램 설치 안내</text><text x="284" y="339" font-size="7.6" fill="#666">· 우리카드(우리BC카드 포함) 이용 고객 안내</text><text x="284" y="354" font-size="7.6" fill="#666">· 인지세(가산세 포함) 납부 관련 안내</text><rect x="580" y="282" width="180" height="90" fill="#f7f9fc" stroke="#dde1eb"/><text x="594" y="300" font-size="8.5" font-weight="700" fill="#333">구매가능 시간</text><text x="594" y="318" font-size="9" font-weight="700" fill="#1d6fd0">365일</text><text x="594" y="334" font-size="9" font-weight="700" fill="#1d6fd0">00:30 ~ 22:00</text><text x="594" y="354" font-size="7.5" fill="#888">인지세 과세문서별</text><text x="594" y="366" font-size="7.5" fill="#888">발급금액 안내 ›</text><line x1="20" y1="388" x2="760" y2="388" stroke="#e0e4ec"/><text x="20" y="404" font-size="7.5" fill="#999">패밀리사이트 | 금융결제원 · Internet GIRO · yessign · K-CASH · BANKPAY · KFTCVAN · CMS지로EDI</text><text x="20" y="420" font-size="7.5" fill="#999">회사소개 | 이용약관 | 개인정보처리방침 | 오시는 길 | 고객서비스현장 | 저작권정책</text><text x="20" y="440" font-size="7.3" fill="#aaa">전자수입인지 업무대행기관: 금융결제원 (우)04631 서울특별시 중구 퇴계로 110 (회현동3가)</text><text x="20" y="454" font-size="7.3" fill="#aaa">Copyright(C) 2013 KFTC(Korea Financial Telecommunications &amp; Clearings institute) All rights reserved.</text><rect x="20" y="70" width="240" height="196" rx="3" fill="none" stroke="#e0392b" stroke-width="2" stroke-dasharray="5 3"/><circle cx="20" cy="70" r="11" fill="#e0392b"/><text x="20" y="74" text-anchor="middle" font-size="10" font-weight="700" fill="#fff">1</text><text x="390.0" y="548" text-anchor="middle" font-size="8" fill="#c0c5d0">(이해를 돕기 위한 재현 이미지)</text></svg>