<svg viewBox="0 0 760 640" xmlns="http://www.w3.org/2000/svg" font-family="'Malgun Gothic','Noto Sans KR',sans-serif">
<defs>
  <linearGradient id="hdrGrad" x1="0" y1="0" x2="1" y2="0">
    <stop offset="0" stop-color="#1155a5"/><stop offset="1" stop-color="#1a4ca0"/>
  </linearGradient>
  <linearGradient id="bannerGrad" x1="0" y1="0" x2="1" y2="0">
    <stop offset="0" stop-color="#0d3f8a"/><stop offset="1" stop-color="#1a6dc0"/>
  </linearGradient>
  <linearGradient id="btnBlue" x1="0" y1="0" x2="0" y2="1">
    <stop offset="0" stop-color="#3d83dd"/><stop offset="1" stop-color="#2a6fc9"/>
  </linearGradient>
  <linearGradient id="btnGreen" x1="0" y1="0" x2="0" y2="1">
    <stop offset="0" stop-color="#3eb87c"/><stop offset="1" stop-color="#2a9a65"/>
  </linearGradient>
  <linearGradient id="step2Grad" x1="0" y1="0" x2="1" y2="0">
    <stop offset="0" stop-color="#1a6dc0"/><stop offset="1" stop-color="#2a83e0"/>
  </linearGradient>
</defs>
<rect x="0" y="0" width="760" height="640" fill="#e8ecf4"/><rect x="24" y="26" width="720" height="340" fill="#00000018"/><rect x="20" y="20" width="720" height="340" fill="#fff" stroke="#c5ccd8"/><rect x="40" y="34" width="252" height="30" rx="3" fill="url(#step2Grad)"/><text x="166.0" y="54" text-anchor="middle" font-size="9.5" font-weight="700" fill="#fff">1  납부정보입력</text><text x="301" y="53" font-size="11" fill="#9aa3b4">&#9654;</text><rect x="300" y="34" width="220" height="30" rx="3" fill="#d8dde8"/><text x="410.0" y="54" text-anchor="middle" font-size="9" fill="#888">2  입력정보확인</text><text x="529" y="53" font-size="11" fill="#9aa3b4">&#9654;</text><rect x="528" y="34" width="232" height="30" rx="3" fill="#d8dde8"/><text x="644.0" y="54" text-anchor="middle" font-size="9" fill="#888">3  구매결과확인 및 발급</text><text x="36" y="90" font-size="11.5" font-weight="700" fill="#1a3a6a">인지세 과세문서 및 세액을 알려드립니다.</text><text x="724" y="90" text-anchor="end" font-size="8.5" fill="#1d6fd0" text-decoration="underline">인지세 과세문서 안내</text><line x1="28" y1="98" x2="732" y2="98" stroke="#e0e4ec"/><text x="36" y="116" font-size="10.5" font-weight="700" fill="#333">납부정보</text><rect x="28" y="124" width="704" height="26" fill="#3a4a6a"/><text x="74.0" y="141" text-anchor="middle" font-size="8.8" font-weight="700" fill="#fff">용도</text><line x1="120" y1="124" x2="120" y2="150" stroke="#ffffff40"/><text x="195.0" y="141" text-anchor="middle" font-size="8.8" font-weight="700" fill="#fff">과세문서 종류</text><line x1="270" y1="124" x2="270" y2="150" stroke="#ffffff40"/><text x="335.0" y="141" text-anchor="middle" font-size="8.8" font-weight="700" fill="#fff">금액</text><line x1="400" y1="124" x2="400" y2="150" stroke="#ffffff40"/><text x="430.0" y="141" text-anchor="middle" font-size="8.8" font-weight="700" fill="#fff">건수</text><line x1="460" y1="124" x2="460" y2="150" stroke="#ffffff40"/><text x="515.0" y="141" text-anchor="middle" font-size="8.8" font-weight="700" fill="#fff">합계금액</text><line x1="570" y1="124" x2="570" y2="150" stroke="#ffffff40"/><rect x="28" y="150" width="704" height="24" fill="#fff" stroke="#e8eaef"/><rect x="31" y="152" width="86" height="20" fill="#fff" stroke="#a8afc0" stroke-width="1"/><text x="37" y="165.0" font-size="7.6" fill="#333">인지세 납부</text><line x1="99" y1="154" x2="99" y2="170" stroke="#d0d4de"/><rect x="99" y="153" width="17" height="18" fill="#f2f3f6"/><path d="M104.0,160.0 L112.0,160.0 L108.0,165.0 Z" fill="#5a6172"/><rect x="123" y="152" width="144" height="20" fill="#fff" stroke="#a8afc0" stroke-width="1"/><text x="129" y="165.0" font-size="7.6" fill="#333">1.부동산 등 소</text><line x1="249" y1="154" x2="249" y2="170" stroke="#d0d4de"/><rect x="249" y="153" width="17" height="18" fill="#f2f3f6"/><path d="M254.0,160.0 L262.0,160.0 L258.0,165.0 Z" fill="#5a6172"/><rect x="273" y="152" width="124" height="20" fill="#fff" stroke="#c5ccd8"/><text x="279" y="167" font-size="8" fill="#1d6fd0">150,000</text><rect x="403" y="152" width="54" height="20" fill="#fff" stroke="#c5ccd8"/><text x="409" y="167" font-size="8" fill="#1d6fd0">1</text><rect x="463" y="152" width="104" height="20" fill="#fff" stroke="#c5ccd8"/><text x="469" y="167" font-size="8" fill="#1d6fd0">150,000</text><rect x="28" y="174" width="704" height="24" fill="#fafbfc" stroke="#e8eaef"/><rect x="31" y="176" width="86" height="20" fill="#fff" stroke="#a8afc0" stroke-width="1"/><text x="37" y="189.0" font-size="7.6" fill="#333">-- 선택 --</text><line x1="99" y1="178" x2="99" y2="194" stroke="#d0d4de"/><rect x="99" y="177" width="17" height="18" fill="#f2f3f6"/><path d="M104.0,184.0 L112.0,184.0 L108.0,189.0 Z" fill="#5a6172"/><rect x="123" y="176" width="144" height="20" fill="#fff" stroke="#a8afc0" stroke-width="1"/><text x="129" y="189.0" font-size="7.6" fill="#333">-- 선택 --</text><line x1="249" y1="178" x2="249" y2="194" stroke="#d0d4de"/><rect x="249" y="177" width="17" height="18" fill="#f2f3f6"/><path d="M254.0,184.0 L262.0,184.0 L258.0,189.0 Z" fill="#5a6172"/><rect x="273" y="176" width="124" height="20" fill="#fff" stroke="#c5ccd8"/><rect x="403" y="176" width="54" height="20" fill="#fff" stroke="#c5ccd8"/><rect x="463" y="176" width="104" height="20" fill="#fff" stroke="#c5ccd8"/><rect x="28" y="198" width="704" height="24" fill="#fafbfc" stroke="#e8eaef"/><rect x="31" y="200" width="86" height="20" fill="#fff" stroke="#a8afc0" stroke-width="1"/><text x="37" y="213.0" font-size="7.6" fill="#333">-- 선택 --</text><line x1="99" y1="202" x2="99" y2="218" stroke="#d0d4de"/><rect x="99" y="201" width="17" height="18" fill="#f2f3f6"/><path d="M104.0,208.0 L112.0,208.0 L108.0,213.0 Z" fill="#5a6172"/><rect x="123" y="200" width="144" height="20" fill="#fff" stroke="#a8afc0" stroke-width="1"/><text x="129" y="213.0" font-size="7.6" fill="#333">-- 선택 --</text><line x1="249" y1="202" x2="249" y2="218" stroke="#d0d4de"/><rect x="249" y="201" width="17" height="18" fill="#f2f3f6"/><path d="M254.0,208.0 L262.0,208.0 L258.0,213.0 Z" fill="#5a6172"/><rect x="273" y="200" width="124" height="20" fill="#fff" stroke="#c5ccd8"/><rect x="403" y="200" width="54" height="20" fill="#fff" stroke="#c5ccd8"/><rect x="463" y="200" width="104" height="20" fill="#fff" stroke="#c5ccd8"/><rect x="28" y="222" width="704" height="24" fill="#fafbfc" stroke="#e8eaef"/><rect x="31" y="224" width="86" height="20" fill="#fff" stroke="#a8afc0" stroke-width="1"/><text x="37" y="237.0" font-size="7.6" fill="#333">-- 선택 --</text><line x1="99" y1="226" x2="99" y2="242" stroke="#d0d4de"/><rect x="99" y="225" width="17" height="18" fill="#f2f3f6"/><path d="M104.0,232.0 L112.0,232.0 L108.0,237.0 Z" fill="#5a6172"/><rect x="123" y="224" width="144" height="20" fill="#fff" stroke="#a8afc0" stroke-width="1"/><text x="129" y="237.0" font-size="7.6" fill="#333">-- 선택 --</text><line x1="249" y1="226" x2="249" y2="242" stroke="#d0d4de"/><rect x="249" y="225" width="17" height="18" fill="#f2f3f6"/><path d="M254.0,232.0 L262.0,232.0 L258.0,237.0 Z" fill="#5a6172"/><rect x="273" y="224" width="124" height="20" fill="#fff" stroke="#c5ccd8"/><rect x="403" y="224" width="54" height="20" fill="#fff" stroke="#c5ccd8"/><rect x="463" y="224" width="104" height="20" fill="#fff" stroke="#c5ccd8"/><rect x="28" y="246" width="704" height="24" fill="#fafbfc" stroke="#e8eaef"/><rect x="31" y="248" width="86" height="20" fill="#fff" stroke="#a8afc0" stroke-width="1"/><text x="37" y="261.0" font-size="7.6" fill="#333">-- 선택 --</text><line x1="99" y1="250" x2="99" y2="266" stroke="#d0d4de"/><rect x="99" y="249" width="17" height="18" fill="#f2f3f6"/><path d="M104.0,256.0 L112.0,256.0 L108.0,261.0 Z" fill="#5a6172"/><rect x="123" y="248" width="144" height="20" fill="#fff" stroke="#a8afc0" stroke-width="1"/><text x="129" y="261.0" font-size="7.6" fill="#333">-- 선택 --</text><line x1="249" y1="250" x2="249" y2="266" stroke="#d0d4de"/><rect x="249" y="249" width="17" height="18" fill="#f2f3f6"/><path d="M254.0,256.0 L262.0,256.0 L258.0,261.0 Z" fill="#5a6172"/><rect x="273" y="248" width="124" height="20" fill="#fff" stroke="#c5ccd8"/><rect x="403" y="248" width="54" height="20" fill="#fff" stroke="#c5ccd8"/><rect x="463" y="248" width="104" height="20" fill="#fff" stroke="#c5ccd8"/><rect x="28" y="274" width="704" height="26" fill="#f0f3fa" stroke="#dde1eb"/><text x="40" y="291" font-size="9" font-weight="700" fill="#333">총 건수</text><text x="100" y="291" font-size="9" fill="#333">1 건</text><text x="248" y="291" font-size="9" font-weight="700" fill="#333">총 금액</text><text x="318" y="291" font-size="9" fill="#333">150,000 원</text><rect x="338.0" y="314" width="84" height="28" rx="3" fill="url(#btnBlue)"/><text x="380.0" y="332.0" text-anchor="middle" font-size="11" font-weight="700" fill="#fff">확인</text><rect x="28" y="150" width="542" height="24" rx="3" fill="none" stroke="#e0392b" stroke-width="2" stroke-dasharray="5 3"/><circle cx="28" cy="150" r="11" fill="#e0392b"/><text x="28" y="154" text-anchor="middle" font-size="10" font-weight="700" fill="#fff">1</text><rect x="334.0" y="312" width="92" height="32" rx="3" fill="none" stroke="#e0392b" stroke-width="2" stroke-dasharray="5 3"/><circle cx="334.0" cy="312" r="11" fill="#e0392b"/><text x="334.0" y="316" text-anchor="middle" font-size="10" font-weight="700" fill="#fff">2</text><rect x="20" y="380" width="720" height="238" fill="#fff" stroke="#dde1eb"/><text x="36" y="402" font-size="10.5" font-weight="700" fill="#2c3550">※ 인지세 금액 기준 (인지세법 제3조)</text><text x="36" y="420" font-size="9" fill="#e0392b">★ 주택의 소유권이전에 관한 증서로서 기재금액 1억원 이하는 인지세 면제 (인지세법 제6조 제5호)</text><rect x="36" y="434" width="688" height="24" fill="#3a4a6a"/><text x="256" y="450" text-anchor="middle" font-size="9" font-weight="700" fill="#fff">과세문서</text><text x="564" y="450" text-anchor="middle" font-size="9" font-weight="700" fill="#fff">기재금액 (매매가)</text><text x="684" y="450" text-anchor="middle" font-size="9" font-weight="700" fill="#fff">세액</text><line x1="476" y1="434" x2="476" y2="568" stroke="#ffffff40"/><rect x="36" y="458" width="440" height="110" fill="#f5f7fc" stroke="#dde1eb"/><text x="256" y="517.0" text-anchor="middle" font-size="8.5" fill="#333">부동산, 선박, 항공기의</text><text x="256" y="531.0" text-anchor="middle" font-size="8.5" fill="#333">소유권이전에 관한 증서</text><rect x="476" y="458" width="168" height="22" fill="#fff" stroke="#e8eaef"/><text x="484" y="473" font-size="8.3" fill="#333">1천만원 초과 ~ 3천만원 이하</text><rect x="644" y="458" width="80" height="22" fill="#fff" stroke="#e8eaef"/><text x="684" y="473" text-anchor="middle" font-size="8.8" font-weight="700" fill="#1d6fd0">2만원</text><rect x="476" y="480" width="168" height="22" fill="#fff" stroke="#e8eaef"/><text x="484" y="495" font-size="8.3" fill="#333">3천만원 초과 ~ 5천만원 이하</text><rect x="644" y="480" width="80" height="22" fill="#fff" stroke="#e8eaef"/><text x="684" y="495" text-anchor="middle" font-size="8.8" font-weight="700" fill="#1d6fd0">4만원</text><rect x="476" y="502" width="168" height="22" fill="#fff" stroke="#e8eaef"/><text x="484" y="517" font-size="8.3" fill="#333">5천만원 초과 ~ 1억원 이하</text><rect x="644" y="502" width="80" height="22" fill="#fff" stroke="#e8eaef"/><text x="684" y="517" text-anchor="middle" font-size="8.8" font-weight="700" fill="#1d6fd0">7만원</text><rect x="476" y="524" width="168" height="22" fill="#f0f7ff" stroke="#e8eaef"/><text x="484" y="539" font-size="8.3" fill="#333">★ 1억원 초과 ~ 10억원 이하</text><rect x="644" y="524" width="80" height="22" fill="#f0f7ff" stroke="#e8eaef"/><text x="684" y="539" text-anchor="middle" font-size="8.8" font-weight="700" fill="#1d6fd0">15만원</text><rect x="476" y="546" width="168" height="22" fill="#f0f7ff" stroke="#e8eaef"/><text x="484" y="561" font-size="8.3" fill="#333">★ 10억원 초과</text><rect x="644" y="546" width="80" height="22" fill="#f0f7ff" stroke="#e8eaef"/><text x="684" y="561" text-anchor="middle" font-size="8.8" font-weight="700" fill="#1d6fd0">35만원</text><text x="36" y="602" font-size="8" fill="#888">※ 전자수입인지는 구매 후 취소가 불가하며, 미사용분은 은행·우체국 등에서 환매 가능(환매수수료 구매금액의 3% 이내)</text><text x="380.0" y="630" text-anchor="middle" font-size="8" fill="#c0c5d0">(이해를 돕기 위한 재현 이미지)</text></svg>