<svg xmlns="http://www.w3.org/2000/svg" viewBox="0 0 760 450" font-family="'Noto Sans KR',sans-serif">
<rect width="760" height="450" fill="#F8FAFC"/>
<rect x="0" y="0" width="760" height="52" fill="#FFFFFF"/>
<line x1="0" y1="52" x2="760" y2="52" stroke="#E2E8F0"/>
<circle cx="28" cy="26" r="6" fill="#CBD5E1"/><circle cx="48" cy="26" r="6" fill="#CBD5E1"/><circle cx="68" cy="26" r="6" fill="#CBD5E1"/>
<rect x="96" y="14" width="420" height="24" rx="12" fill="#F1F5F9"/>
<text x="110" y="31" font-size="12" fill="#94A3B8">인터넷뱅킹 &gt; 주택도시기금 &gt; 국민주택채권 매입</text>
<text x="40" y="88" font-size="17" font-weight="700" fill="#0F172A">매입 완료 — 채권발행번호 확인</text>
<rect x="40" y="104" width="680" height="230" rx="10" fill="#FFFFFF" stroke="#E2E8F0"/>
<text x="380" y="140" font-size="15" font-weight="700" fill="#0F172A" text-anchor="middle">국민주택채권 매입 영수증</text>
<line x1="64" y1="156" x2="696" y2="156" stroke="#E2E8F0"/>
<text x="64" y="184" font-size="12" fill="#64748B">매입일자</text><text x="696" y="184" font-size="13" fill="#0F172A" text-anchor="end">2026.07.22</text>
<text x="64" y="212" font-size="12" fill="#64748B">매입금액</text><text x="696" y="212" font-size="13" fill="#0F172A" text-anchor="end">1,234,000 원</text>
<text x="64" y="240" font-size="12" fill="#64748B">매도구분</text><text x="696" y="240" font-size="13" fill="#0F172A" text-anchor="end">즉시매도</text>
<text x="64" y="278" font-size="12" font-weight="700" fill="#64748B">채권발행번호</text>
<rect x="64" y="288" width="632" height="34" rx="6" fill="#E0F2FE"/>
<text x="380" y="311" font-size="15" font-weight="800" fill="#0369A1" text-anchor="middle" letter-spacing="2">0000-00-0000-0000</text><rect x="54" y="268" width="652" height="62" fill="none" stroke="#DC2626" stroke-width="2.5" stroke-dasharray="7 4" rx="8"/>
<circle cx="54" cy="268" r="12" fill="#DC2626"/><text x="54" y="272.5" font-size="12" font-weight="800" fill="#FFFFFF" text-anchor="middle">1</text><text x="40" y="368" font-size="12.5" fill="#0F172A">이 번호를 아래 저장칸(번호 보관함)에 입력하면 신청서에 자동으로 채워집니다.</text>
<rect x="0" y="418" width="760" height="32" fill="#EEF2F6"/>
<text x="380" y="438" font-size="11" fill="#64748B" text-anchor="middle">재현 이미지 — 번호는 예시 형식이며, 실제 영수증 서식과 다를 수 있습니다</text>
</svg>