<svg viewBox="0 0 780 642" xmlns="http://www.w3.org/2000/svg" font-family="'Malgun Gothic','Noto Sans KR',sans-serif">
  <defs>
    <linearGradient id="btnBlue" x1="0" y1="0" x2="0" y2="1">
      <stop offset="0" stop-color="#3d83dd"/><stop offset="1" stop-color="#2a6fc9"/>
    </linearGradient>
  </defs>
  <rect x="2" y="2" width="776" height="638" rx="4" fill="#ffffff" stroke="#cfd5df" stroke-width="1.5"/>
  <text x="455" y="30" text-anchor="middle" font-size="16" font-weight="700" fill="#1d5fb0">취득세 신고(부동산 유상취득)</text>
  <text x="22" y="56" font-size="12" font-weight="700" fill="#2c3550">신고대상</text>
  <rect x="18" y="66" width="150" height="356" rx="3" fill="#ffffff" stroke="#dfe3ea"/>
  <circle cx="40" cy="92" r="9" fill="#2c3550"/><text x="40" y="95.5" text-anchor="middle" font-size="9" font-weight="700" fill="#fff">1</text>
  <text x="56" y="95.5" font-size="9.5" font-weight="400" fill="#555">신고인</text>
  <circle cx="40" cy="126" r="9" fill="#2c3550"/><text x="40" y="129.5" text-anchor="middle" font-size="9" font-weight="700" fill="#fff">2</text>
  <text x="56" y="129.5" font-size="9.5" font-weight="400" fill="#555">신고유형</text>
  <circle cx="40" cy="160" r="9" fill="#2c3550"/><text x="40" y="163.5" text-anchor="middle" font-size="9" font-weight="700" fill="#fff">3</text>
  <text x="56" y="163.5" font-size="9.5" font-weight="400" fill="#555">신고내용</text>
  <circle cx="40" cy="194" r="9" fill="#2c3550"/><text x="40" y="197.5" text-anchor="middle" font-size="9" font-weight="700" fill="#fff">4</text>
  <text x="56" y="197.5" font-size="9.5" font-weight="400" fill="#555">감면신청</text>
  <circle cx="40" cy="228" r="9" fill="#2c3550"/><text x="40" y="231.5" text-anchor="middle" font-size="9" font-weight="700" fill="#fff">5</text>
  <text x="56" y="231.5" font-size="9.5" font-weight="400" fill="#555">산출세액확인</text>
  <circle cx="40" cy="262" r="9" fill="#2c3550"/><text x="40" y="265.5" text-anchor="middle" font-size="9" font-weight="700" fill="#fff">6</text>
  <text x="56" y="265.5" font-size="9.5" font-weight="400" fill="#555">구비서류등록</text>
  <circle cx="40" cy="296" r="9" fill="#2c3550"/><text x="40" y="299.5" text-anchor="middle" font-size="9" font-weight="700" fill="#fff">7</text>
  <text x="56" y="299.5" font-size="9.5" font-weight="400" fill="#555">신고서제출</text>
  <circle cx="40" cy="330" r="9" fill="#1d6fd0"/><text x="40" y="333.5" text-anchor="middle" font-size="9" font-weight="700" fill="#fff">8</text>
  <text x="56" y="333.5" font-size="9.5" font-weight="700" fill="#1d6fd0">납부</text>
  <text x="150" y="334" font-size="11" fill="#1d6fd0">&#9654;</text>
  <text x="473" y="62" text-anchor="middle" font-size="12" font-weight="700" fill="#2c3550">취득세 납부안내</text>
  <rect x="190" y="74" width="572" height="34" fill="#fff" stroke="#dfe3ea"/>
  <rect x="190" y="74" width="80" height="34" fill="#fafbfc" stroke="#dfe3ea"/>
  <text x="230" y="94" text-anchor="middle" font-size="8.5" font-weight="700" fill="#555">납세번호</text>
  <text x="292.3636363636364" y="88" text-anchor="middle" font-size="6.8" font-weight="700" fill="#666">과세기관</text>
  <text x="292.3636363636364" y="102" text-anchor="middle" font-size="7.5" fill="#333">570</text>
  <text x="337.0909090909091" y="88" text-anchor="middle" font-size="6.8" font-weight="700" fill="#666">검</text>
  <text x="337.0909090909091" y="102" text-anchor="middle" font-size="7.5" fill="#333">5</text>
  <line x1="314.72727272727275" y1="74" x2="314.72727272727275" y2="108" stroke="#eef0f3"/>
  <text x="381.8181818181818" y="88" text-anchor="middle" font-size="6.8" font-weight="700" fill="#666">회계</text>
  <text x="381.8181818181818" y="102" text-anchor="middle" font-size="7.5" fill="#333">30</text>
  <line x1="359.45454545454544" y1="74" x2="359.45454545454544" y2="108" stroke="#eef0f3"/>
  <text x="426.54545454545456" y="88" text-anchor="middle" font-size="6.8" font-weight="700" fill="#666">과목</text>
  <text x="426.54545454545456" y="102" text-anchor="middle" font-size="7.5" fill="#333">101</text>
  <line x1="404.1818181818182" y1="74" x2="404.1818181818182" y2="108" stroke="#eef0f3"/>
  <text x="471.27272727272725" y="88" text-anchor="middle" font-size="6.8" font-weight="700" fill="#666">세목</text>
  <text x="471.27272727272725" y="102" text-anchor="middle" font-size="7.5" fill="#333">501</text>
  <line x1="448.9090909090909" y1="74" x2="448.9090909090909" y2="108" stroke="#eef0f3"/>
  <text x="516.0" y="88" text-anchor="middle" font-size="6.8" font-weight="700" fill="#666">연도</text>
  <text x="516.0" y="102" text-anchor="middle" font-size="7.5" fill="#333">2025</text>
  <line x1="493.6363636363636" y1="74" x2="493.6363636363636" y2="108" stroke="#eef0f3"/>
  <text x="560.7272727272727" y="88" text-anchor="middle" font-size="6.8" font-weight="700" fill="#666">월</text>
  <text x="560.7272727272727" y="102" text-anchor="middle" font-size="7.5" fill="#333">06</text>
  <line x1="538.3636363636364" y1="74" x2="538.3636363636364" y2="108" stroke="#eef0f3"/>
  <text x="605.4545454545454" y="88" text-anchor="middle" font-size="6.8" font-weight="700" fill="#666">구분</text>
  <text x="605.4545454545454" y="102" text-anchor="middle" font-size="7.5" fill="#333">3</text>
  <line x1="583.090909090909" y1="74" x2="583.090909090909" y2="108" stroke="#eef0f3"/>
  <text x="650.1818181818181" y="88" text-anchor="middle" font-size="6.8" font-weight="700" fill="#666">읍면동</text>
  <text x="650.1818181818181" y="102" text-anchor="middle" font-size="7.5" fill="#333">580</text>
  <line x1="627.8181818181818" y1="74" x2="627.8181818181818" y2="108" stroke="#eef0f3"/>
  <text x="694.9090909090909" y="88" text-anchor="middle" font-size="6.8" font-weight="700" fill="#666">과세번호</text>
  <text x="694.9090909090909" y="102" text-anchor="middle" font-size="7.5" fill="#333">090746</text>
  <line x1="672.5454545454545" y1="74" x2="672.5454545454545" y2="108" stroke="#eef0f3"/>
  <text x="739.6363636363636" y="88" text-anchor="middle" font-size="6.8" font-weight="700" fill="#666">검</text>
  <text x="739.6363636363636" y="102" text-anchor="middle" font-size="7.5" fill="#333">9</text>
  <line x1="717.2727272727273" y1="74" x2="717.2727272727273" y2="108" stroke="#eef0f3"/>
  <line x1="270" y1="91" x2="762" y2="91" stroke="#eef0f3"/>
  <text x="190" y="124" font-size="8.5" fill="#444">납세자 : 홍길동    납세자번호 : 900222-&#9679;&#9679;&#9679;&#9679;&#9679;&#9679;</text>
  <text x="190" y="138" font-size="8.5" fill="#444">과세대상 : 토지+건물 운양동 1300-3번지 ... 706동 2404호  건물 59.42m&#178; 매매</text>
  <text x="190" y="152" font-size="8.5" fill="#444">납부기한 : 2025-09-16</text>
  <rect x="190" y="162" width="380" height="20" fill="#f5f6f9" stroke="#e2e5ec"/>
  <text x="245" y="175" text-anchor="middle" font-size="8.5" font-weight="700" fill="#555">세목</text>
  <text x="400" y="175" text-anchor="middle" font-size="8.5" font-weight="700" fill="#555">납부할 세액</text>
  <text x="525" y="175" text-anchor="middle" font-size="8.5" font-weight="700" fill="#555">부과내역(과세표준)</text>
  <line x1="330" y1="162" x2="330" y2="266" stroke="#e2e5ec"/><line x1="470" y1="162" x2="470" y2="266" stroke="#e2e5ec"/>
  <rect x="190" y="182" width="380" height="22" fill="#fff" stroke="#e2e5ec"/>
  <text x="200" y="196" font-size="8" fill="#444">취득세</text>
  <text x="462" y="196" text-anchor="end" font-size="8" fill="#333">5,000,000 원</text>
  <rect x="190" y="204" width="380" height="22" fill="#fff" stroke="#e2e5ec"/>
  <text x="200" y="218" font-size="8" fill="#444">지방교육세</text>
  <text x="462" y="218" text-anchor="end" font-size="8" fill="#333">500,000 원</text>
  <rect x="190" y="226" width="380" height="22" fill="#fff" stroke="#e2e5ec"/>
  <text x="200" y="240" font-size="8" fill="#444">농어촌특별세</text>
  <text x="462" y="240" text-anchor="end" font-size="8" fill="#333">0 원</text>
  <rect x="190" y="248" width="380" height="22" fill="#7a6e63"/>
  <text x="200" y="262" font-size="8.5" font-weight="700" fill="#fff">합계</text>
  <text x="462" y="262" text-anchor="end" font-size="8.5" font-weight="700" fill="#fff">5,500,000 원</text>
  <rect x="580" y="162" width="182" height="50" fill="#fff" stroke="#e2e5ec"/>
  <text x="671" y="178" text-anchor="middle" font-size="8.5" font-weight="700" fill="#555">시가표준액</text>
  <text x="671" y="198" text-anchor="middle" font-size="11" font-weight="700" fill="#1d5fb0">247,000,000원</text>
  <rect x="580" y="222" width="62" height="30" fill="#3a4664"/><text x="611" y="240" text-anchor="middle" font-size="8" fill="#fff">전자납부</text><text x="611" y="250" text-anchor="middle" font-size="8" fill="#fff">번호</text>
  <rect x="642" y="222" width="120" height="30" fill="#fff" stroke="#e2e5ec"/>
  <text x="702" y="234" text-anchor="middle" font-size="8" fill="#333">41570-1-30-23-2-</text>
  <text x="702" y="246" text-anchor="middle" font-size="8" fill="#333">1645519-7</text>
  <text x="473" y="290" text-anchor="middle" font-size="9" fill="#444">위의 금액을 납부하시기 바랍니다.</text>
  <text x="473" y="306" text-anchor="middle" font-size="8.5" fill="#333">2025년 6월 20일</text>
  <rect x="190" y="320" width="572" height="24" fill="#fafbfc" stroke="#e2e5ec"/>
  <text x="200" y="336" font-size="9" font-weight="700" fill="#444">납부계좌</text><text x="752" y="337" text-anchor="end" font-size="13" fill="#999">+</text>
  <rect x="2" y="600" width="776" height="40" fill="#eef0f4"/>
  <rect x="16" y="610" width="48" height="22" rx="3" fill="#fff" stroke="#9aa3b4"/><text x="40.0" y="625" text-anchor="middle" font-size="9" fill="#445">신고목록</text>
  <rect x="72" y="610" width="57" height="22" rx="3" fill="#fff" stroke="#9aa3b4"/><text x="100.5" y="625" text-anchor="middle" font-size="9" fill="#445">신고서출력</text>
  <rect x="137" y="610" width="57" height="22" rx="3" fill="#fff" stroke="#9aa3b4"/><text x="165.5" y="625" text-anchor="middle" font-size="9" fill="#445">납부서출력</text>
  <rect x="202" y="610" width="48" height="22" rx="3" fill="#fff" stroke="#9aa3b4"/><text x="226.0" y="625" text-anchor="middle" font-size="9" fill="#445">신고취소</text>
  <rect x="706" y="610" width="56" height="22" rx="3" fill="url(#btnBlue)"/><text x="734.0" y="625" text-anchor="middle" font-size="9.5" font-weight="700" fill="#fff">즉시납부</text>
  <rect x="135" y="608" width="61" height="26" rx="3" fill="none" stroke="#e0392b" stroke-width="2" stroke-dasharray="5 3"/>
  <circle cx="135" cy="608" r="11" fill="#e0392b"/><text x="135" y="612" text-anchor="middle" font-size="12" font-weight="700" fill="#fff">1</text>
  <rect x="578" y="160" width="186" height="54" rx="3" fill="none" stroke="#e0392b" stroke-width="2" stroke-dasharray="5 3"/>
  <circle cx="578" cy="160" r="11" fill="#e0392b"/><text x="578" y="164" text-anchor="middle" font-size="12" font-weight="700" fill="#fff">2</text>
</svg>
