<svg viewBox="0 0 780 470" xmlns="http://www.w3.org/2000/svg" font-family="'Malgun Gothic','Noto Sans KR',sans-serif"><defs><linearGradient id="btnBlue" x1="0" y1="0" x2="0" y2="1"><stop offset="0" stop-color="#3d83dd"/><stop offset="1" stop-color="#2a6fc9"/></linearGradient></defs><rect x="2" y="2" width="776" height="466" rx="4" fill="#ffffff" stroke="#cfd5df" stroke-width="1.5"/><text x="482" y="30" text-anchor="middle" font-size="16" font-weight="700" fill="#1d5fb0">취득세 신고(부동산 유상취득)</text><text x="762" y="50" text-anchor="end" font-size="9" fill="#e0392b">※ &#9679; : 필수 입력 항목 입니다.</text>
<text x="22" y="56" font-size="12" font-weight="700" fill="#2c3550">신고대상</text>
<rect x="18" y="66" width="150" height="364" rx="3" fill="#ffffff" stroke="#dfe3ea"/>
<circle cx="40" cy="92" r="9" fill="#b9c0cc"/>
<path d="M36,92 l3,3 l5,-6" fill="none" stroke="#fff" stroke-width="1.6" stroke-linecap="round" stroke-linejoin="round"/>
<text x="56" y="95.5" font-size="9.5" fill="#9aa3b2">신고인</text>
<circle cx="40" cy="126" r="9" fill="#b9c0cc"/>
<path d="M36,126 l3,3 l5,-6" fill="none" stroke="#fff" stroke-width="1.6" stroke-linecap="round" stroke-linejoin="round"/>
<text x="56" y="129.5" font-size="9.5" fill="#9aa3b2">신고유형</text>
<circle cx="40" cy="160" r="9" fill="#b9c0cc"/>
<path d="M36,160 l3,3 l5,-6" fill="none" stroke="#fff" stroke-width="1.6" stroke-linecap="round" stroke-linejoin="round"/>
<text x="56" y="163.5" font-size="9.5" fill="#9aa3b2">신고내용</text>
<circle cx="40" cy="194" r="9" fill="#b9c0cc"/>
<path d="M36,194 l3,3 l5,-6" fill="none" stroke="#fff" stroke-width="1.6" stroke-linecap="round" stroke-linejoin="round"/>
<text x="56" y="197.5" font-size="9.5" fill="#9aa3b2">주택명세서</text>
<circle cx="40" cy="228" r="9" fill="#b9c0cc"/>
<path d="M36,228 l3,3 l5,-6" fill="none" stroke="#fff" stroke-width="1.6" stroke-linecap="round" stroke-linejoin="round"/>
<text x="56" y="231.5" font-size="9.5" fill="#9aa3b2">중과세확인</text>
<circle cx="40" cy="262" r="9" fill="#b9c0cc"/>
<path d="M36,262 l3,3 l5,-6" fill="none" stroke="#fff" stroke-width="1.6" stroke-linecap="round" stroke-linejoin="round"/>
<text x="56" y="265.5" font-size="9.5" fill="#9aa3b2">감면신청</text>
<circle cx="40" cy="296" r="9" fill="#b9c0cc"/>
<path d="M36,296 l3,3 l5,-6" fill="none" stroke="#fff" stroke-width="1.6" stroke-linecap="round" stroke-linejoin="round"/>
<text x="56" y="299.5" font-size="9.5" fill="#9aa3b2">산출세액확인</text>
<circle cx="40" cy="330" r="9" fill="#1d6fd0"/>
<text x="40" y="333.5" text-anchor="middle" font-size="9" font-weight="700" fill="#fff">8</text>
<text x="56" y="333.5" font-size="9.5" font-weight="700" fill="#1d6fd0">구비서류등록</text>
<text x="156" y="334" font-size="11" fill="#1d6fd0">&#9654;</text>
<circle cx="40" cy="364" r="9" fill="#2c3550"/>
<text x="40" y="367.5" text-anchor="middle" font-size="9" font-weight="700" fill="#fff">9</text>
<text x="56" y="367.5" font-size="9.5" fill="#555">신고서제출</text>
<circle cx="40" cy="398" r="9" fill="#2c3550"/>
<text x="40" y="401.5" text-anchor="middle" font-size="9" font-weight="700" fill="#fff">10</text>
<text x="56" y="401.5" font-size="9.5" fill="#555">납부</text>
<rect x="185" y="66" width="577" height="26" rx="3" fill="#f1f2f5"/><text x="199" y="83" font-size="10" font-weight="700" fill="#555">납세자</text><text x="255" y="84" font-size="10" fill="#888" letter-spacing="1">&#9679;&#9679;&#9679;&#9679;&#9679;&#9679;</text>
<text x="185" y="118" font-size="11" font-weight="700" fill="#2c3550">구비서류</text>
<circle cx="243" cy="114" r="7" fill="#eef1f6"/><text x="243" y="117.5" text-anchor="middle" font-size="8" fill="#7a8597">?</text>
<text x="762" y="116" text-anchor="end" font-size="8" fill="#888">※ 이미지 파일은 PDF로 변환되어 저장됩니다.</text>
<line x1="185" y1="124" x2="762" y2="124" stroke="#3a4664" stroke-width="1.5"/>
<text x="197" y="158" font-size="9.5" font-weight="700" fill="#333">매매계약서</text><text x="261" y="155" font-size="7" fill="#e0392b">&#9679;</text>
<rect x="305" y="145" width="320" height="22" rx="2" fill="#fff" stroke="#ccd2dc"/><text x="315" y="160" font-size="8.5" fill="#aaa">선택된 파일 없음</text>
<rect x="635" y="145" width="70" height="22" rx="2" fill="#2c3550"/><text x="670" y="160" text-anchor="middle" font-size="8.5" fill="#fff">파일첨부</text>
<text x="197" y="214" font-size="9.5" font-weight="700" fill="#333">그밖에 필요한 서류</text>
<rect x="305" y="184" width="90" height="20" rx="2" fill="#fff" stroke="#9aa3b4"/><text x="350" y="198" text-anchor="middle" font-size="8.5" fill="#445">파일첨부추가</text>
<text x="762" y="198" text-anchor="end" font-size="8" fill="#888">※ 파일은 최대 10개까지 가능합니다.</text>
<rect x="305" y="210" width="320" height="22" rx="2" fill="#fff" stroke="#ccd2dc"/><text x="315" y="225" font-size="8.5" fill="#aaa">선택된 파일 없음</text>
<rect x="635" y="210" width="70" height="22" rx="2" fill="#2c3550"/><text x="670" y="225" text-anchor="middle" font-size="8.5" fill="#fff">파일첨부</text>
<rect x="710" y="210" width="44" height="22" rx="2" fill="#fff" stroke="#9aa3b4"/><text x="732" y="225" text-anchor="middle" font-size="8.5" fill="#445">삭제</text>
<rect x="197" y="246" width="553" height="67" rx="3" fill="#f5f8ff" stroke="#cfe0fb"/>
<text x="209" y="265" font-size="8.6" fill="#2c5b9c">매매계약서는 필수입니다. 잔금일·취득가액이 보이도록 스캔/촬영하세요.</text>
<text x="209" y="282" font-size="8.6" fill="#2c5b9c">행정정보 공동이용에 동의했으면 주민등록등본·가족관계증명서는 자동조회되어 생략될 수 있고,</text>
<text x="209" y="299" font-size="8.6" fill="#2c5b9c">동의하지 않았으면 '그밖에 필요한 서류'에 함께 첨부합니다.</text>
<rect x="2" y="430" width="776" height="40" fill="#eef0f4"/><rect x="16" y="440" width="64" height="22" rx="3" fill="#fff" stroke="#9aa3b4"/><text x="48" y="455" text-anchor="middle" font-size="9" fill="#445">임시저장</text><rect x="86" y="440" width="64" height="22" rx="3" fill="#fff" stroke="#9aa3b4"/><text x="118" y="455" text-anchor="middle" font-size="9" fill="#445">신고취소</text><rect x="676" y="440" width="86" height="22" rx="3" fill="url(#btnBlue)"/><text x="719" y="455" text-anchor="middle" font-size="9.5" font-weight="700" fill="#fff">다음 &#8594;</text>
<text x="482" y="420" text-anchor="middle" font-size="8.5" fill="#999">(이해를 돕기 위한 재현 이미지)</text></svg>