<svg viewBox="0 0 700 560" xmlns="http://www.w3.org/2000/svg" font-family="'Malgun Gothic','Noto Sans KR',sans-serif">
  <defs>
    <linearGradient id="btnBlue" x1="0" y1="0" x2="0" y2="1">
      <stop offset="0" stop-color="#3d83dd"/><stop offset="1" stop-color="#2a6fc9"/>
    </linearGradient>
  </defs>

  <!-- 배경(딤드) -->
  <rect x="0" y="0" width="700" height="560" fill="#e7e9ee"/>

  <!-- 모달 카드 -->
  <rect x="20" y="20" width="660" height="520" rx="6" fill="#ffffff" stroke="#cfd5df" stroke-width="1.5"/>

  <!-- 모달 헤더 -->
  <rect x="20" y="20" width="660" height="44" rx="6" fill="#2c3550"/>
  <rect x="20" y="48" width="660" height="16" fill="#2c3550"/>
  <text x="42" y="48" font-size="14" font-weight="700" fill="#fff">부동산 거래정보 조회</text>
  <line x1="648" y1="36" x2="660" y2="48" stroke="#cfd5df" stroke-width="1.8"/>
  <line x1="660" y1="36" x2="648" y2="48" stroke="#cfd5df" stroke-width="1.8"/>

  <!-- 검색구분 -->
  <text x="42" y="92" font-size="10.5" font-weight="700" fill="#333">검색구분</text>
  <circle cx="150" cy="89" r="6" fill="#fff" stroke="#1d6fd0" stroke-width="1.5"/><circle cx="150" cy="89" r="3" fill="#1d6fd0"/>
  <text x="164" y="92.5" font-size="10" fill="#333">납세자</text>
  <circle cx="240" cy="89" r="6" fill="#fff" stroke="#9aa3b4" stroke-width="1.5"/>
  <text x="254" y="92.5" font-size="10" fill="#333">신고필증관리번호</text>

  <line x1="42" y1="110" x2="658" y2="110" stroke="#e2e5ec"/>

  <!-- 관할자치단체 -->
  <text x="42" y="140" font-size="10.5" font-weight="700" fill="#333">관할자치단체</text>
  <text x="120" y="137" font-size="8" fill="#e0392b">★</text>
  <rect x="150" y="126" width="190" height="22" rx="2" fill="#fff" stroke="#ccd2dc"/>
  <text x="160" y="141" font-size="9.5" fill="#333">경기도</text><text x="328" y="141" font-size="8" fill="#888">&#9660;</text>
  <rect x="350" y="126" width="190" height="22" rx="2" fill="#fff" stroke="#ccd2dc"/>
  <text x="360" y="141" font-size="9.5" fill="#aaa">시·군·구 선택</text><text x="528" y="141" font-size="8" fill="#888">&#9660;</text>

  <!-- 계약일자 -->
  <text x="42" y="180" font-size="10.5" font-weight="700" fill="#333">계약일자</text>
  <text x="112" y="177" font-size="8" fill="#e0392b">★</text>
  <rect x="150" y="166" width="190" height="22" rx="2" fill="#fff" stroke="#ccd2dc"/>
  <text x="160" y="181" font-size="9.5" fill="#333">2026-05-12</text>

  <!-- 검색 버튼 -->
  <rect x="296" y="206" width="108" height="28" rx="3" fill="url(#btnBlue)"/>
  <text x="350" y="224.5" text-anchor="middle" font-size="11" font-weight="700" fill="#fff">검색</text>

  <line x1="42" y1="252" x2="658" y2="252" stroke="#e2e5ec"/>

  <!-- 결과 테이블 헤더 -->
  <rect x="42" y="260" width="616" height="24" fill="#f5f6f9" stroke="#e2e5ec"/>
  <g font-size="8.7" font-weight="700" fill="#555" text-anchor="middle">
    <text x="70" y="276">선택</text>
    <text x="130" y="276">거래유형</text>
    <text x="190" y="276">취득물건</text>
    <text x="380" y="276">물건소재지</text>
    <text x="500" y="276">계약일자</text>
    <text x="565" y="276">취득일자</text>
    <text x="630" y="276">취득가액</text>
  </g>
  <line x1="100" y1="260" x2="100" y2="316" stroke="#e2e5ec"/>
  <line x1="160" y1="260" x2="160" y2="316" stroke="#e2e5ec"/>
  <line x1="220" y1="260" x2="220" y2="316" stroke="#e2e5ec"/>
  <line x1="470" y1="260" x2="470" y2="316" stroke="#e2e5ec"/>
  <line x1="530" y1="260" x2="530" y2="316" stroke="#e2e5ec"/>
  <line x1="600" y1="260" x2="600" y2="316" stroke="#e2e5ec"/>

  <!-- 결과 행 -->
  <rect x="42" y="284" width="616" height="32" fill="#fff" stroke="#e2e5ec"/>
  <circle cx="70" cy="300" r="6" fill="#fff" stroke="#1d6fd0" stroke-width="1.5"/><circle cx="70" cy="300" r="3" fill="#1d6fd0"/>
  <text x="130" y="304" text-anchor="middle" font-size="9" fill="#333">매매</text>
  <text x="190" y="304" text-anchor="middle" font-size="9" fill="#333">건물</text>
  <text x="380" y="304" text-anchor="middle" font-size="9" fill="#888" letter-spacing="1">&#9679;&#9679;&#9679;&#9679;&#9679;&#9679;&#9679;&#9679;</text>
  <text x="500" y="304" text-anchor="middle" font-size="8.5" fill="#888" letter-spacing="1">&#9679;&#9679;&#9679;&#9679;&#9679;</text>
  <text x="565" y="304" text-anchor="middle" font-size="8.5" fill="#888" letter-spacing="1">&#9679;&#9679;&#9679;&#9679;&#9679;</text>
  <text x="650" y="304" text-anchor="end" font-size="9" fill="#333">300,000,000 원</text>

  <!-- 취소/선택 버튼 -->
  <rect x="296" y="346" width="90" height="26" rx="3" fill="#fff" stroke="#9aa3b4"/>
  <text x="341" y="363" text-anchor="middle" font-size="10" fill="#445">취소</text>
  <rect x="396" y="346" width="90" height="26" rx="3" fill="url(#btnBlue)"/>
  <text x="441" y="363" text-anchor="middle" font-size="10" font-weight="700" fill="#fff">선택</text>

  <!-- 신고필증 확인방법 도움말 박스 -->
  <rect x="42" y="394" width="616" height="118" rx="3" fill="#f5f8ff" stroke="#cfe0fb"/>
  <text x="56" y="414" font-size="9.5" font-weight="700" fill="#1d5fb0">신고필증 관리번호 확인 방법</text>
  <text x="56" y="434" font-size="8.7" fill="#444">1. 국토교통부 부동산거래관리시스템(rtms.molit.go.kr)에서 확인 가능</text>
  <text x="56" y="452" font-size="8.7" fill="#444">2. 시·군·구별 거래신고 사이트 &#8594; 바로가기 입력란에 지역을 선택</text>
  <text x="56" y="470" font-size="8.7" fill="#444">3. 회원접속을 합니다</text>
  <text x="56" y="488" font-size="8.7" fill="#444">4. 신고이력조회를 선택합니다</text>

  <!-- 빨간 강조: 검색구분 -->
  <rect x="135" y="80" width="440" height="20" rx="3" fill="none" stroke="#e0392b" stroke-width="2" stroke-dasharray="5 3"/>
  <circle cx="135" cy="80" r="11" fill="#e0392b"/><text x="135" y="84" text-anchor="middle" font-size="12" font-weight="700" fill="#fff">1</text>

  <!-- 빨간 강조: 검색버튼 -->
  <rect x="290" y="200" width="120" height="40" rx="3" fill="none" stroke="#e0392b" stroke-width="2" stroke-dasharray="5 3"/>
  <circle cx="290" cy="200" r="11" fill="#e0392b"/><text x="290" y="204" text-anchor="middle" font-size="12" font-weight="700" fill="#fff">2</text>

  <text x="350" y="540" text-anchor="middle" font-size="8.5" fill="#999">(이해를 돕기 위한 재현 이미지)</text>
</svg>
