<svg viewBox="0 0 780 642" xmlns="http://www.w3.org/2000/svg" font-family="'Malgun Gothic','Noto Sans KR',sans-serif">
  <defs>
    <linearGradient id="btnBlue" x1="0" y1="0" x2="0" y2="1">
      <stop offset="0" stop-color="#3d83dd"/><stop offset="1" stop-color="#2a6fc9"/>
    </linearGradient>
  </defs>
  <rect x="2" y="2" width="776" height="638" rx="4" fill="#ffffff" stroke="#cfd5df" stroke-width="1.5"/>
  <text x="455" y="30" text-anchor="middle" font-size="16" font-weight="700" fill="#1d5fb0">취득세 신고</text>
  <text x="762" y="50" text-anchor="end" font-size="9" fill="#e0392b">&#8226; 는 필수 입력 항목 입니다.</text>
  <text x="22" y="56" font-size="12" font-weight="700" fill="#2c3550">신고대상</text>
  <rect x="18" y="66" width="150" height="356" rx="3" fill="#ffffff" stroke="#dfe3ea"/>
  <circle cx="40" cy="92" r="9" fill="#1d6fd0"/><text x="40" y="95.5" text-anchor="middle" font-size="9" font-weight="700" fill="#fff">1</text>
  <text x="56" y="95.5" font-size="9.5" font-weight="700" fill="#1d6fd0">신고인</text>
  <text x="150" y="96" font-size="11" fill="#1d6fd0">&#9654;</text>
  <circle cx="40" cy="126" r="9" fill="#2c3550"/><text x="40" y="129.5" text-anchor="middle" font-size="9" font-weight="700" fill="#fff">2</text>
  <text x="56" y="129.5" font-size="9.5" font-weight="400" fill="#555">신고유형</text>
  <circle cx="40" cy="160" r="9" fill="#2c3550"/><text x="40" y="163.5" text-anchor="middle" font-size="9" font-weight="700" fill="#fff">3</text>
  <text x="56" y="163.5" font-size="9.5" font-weight="400" fill="#555">신고내용</text>
  <circle cx="40" cy="194" r="9" fill="#2c3550"/><text x="40" y="197.5" text-anchor="middle" font-size="9" font-weight="700" fill="#fff">4</text>
  <text x="56" y="197.5" font-size="9.5" font-weight="400" fill="#555">감면신청</text>
  <circle cx="40" cy="228" r="9" fill="#2c3550"/><text x="40" y="231.5" text-anchor="middle" font-size="9" font-weight="700" fill="#fff">5</text>
  <text x="56" y="231.5" font-size="9.5" font-weight="400" fill="#555">산출세액확인</text>
  <circle cx="40" cy="262" r="9" fill="#2c3550"/><text x="40" y="265.5" text-anchor="middle" font-size="9" font-weight="700" fill="#fff">6</text>
  <text x="56" y="265.5" font-size="9.5" font-weight="400" fill="#555">구비서류등록</text>
  <circle cx="40" cy="296" r="9" fill="#2c3550"/><text x="40" y="299.5" text-anchor="middle" font-size="9" font-weight="700" fill="#fff">7</text>
  <text x="56" y="299.5" font-size="9.5" font-weight="400" fill="#555">신고서제출</text>
  <circle cx="40" cy="330" r="9" fill="#2c3550"/><text x="40" y="333.5" text-anchor="middle" font-size="9" font-weight="700" fill="#fff">8</text>
  <text x="56" y="333.5" font-size="9.5" font-weight="400" fill="#555">납부</text>
  <rect x="185" y="62" width="577" height="40" rx="3" fill="#fff" stroke="#f0d8d8"/>
  <text x="196" y="78" font-size="10" font-weight="700" fill="#d9534f">&#9888; 유의사항</text>
  <text x="755" y="78" text-anchor="end" font-size="12" fill="#999">&#8722;</text>
  <text x="196" y="94" font-size="8.5" fill="#666">&#8226; 관할자치단체가 서울인 경우 서울 이택스(바로가기)에서 신고가 가능합니다.</text>
  <text x="190" y="128" font-size="11" font-weight="700" fill="#333">신고인</text>
  <line x1="190" y1="134" x2="762" y2="134" stroke="#cfd5df"/>
  <rect x="190" y="140" width="572" height="20" fill="#fafbfc" stroke="#e8eaef"/>
  <line x1="270" y1="140" x2="270" y2="160" stroke="#e8eaef"/>
  <line x1="540" y1="140" x2="540" y2="160" stroke="#e8eaef"/>
  <line x1="620" y1="140" x2="620" y2="160" stroke="#e8eaef"/>
  <text x="202" y="153" font-size="9" font-weight="700" fill="#555">성명</text>
  <text x="552" y="153" font-size="9" font-weight="700" fill="#555">주민등록번호</text>
  <text x="640" y="154" font-size="10" fill="#333" letter-spacing="1">&#9679;&#9679;&#9679;&#9679;&#9679;&#9679;&#9679;</text>
  <rect x="190" y="160" width="572" height="20" fill="#fafbfc" stroke="#e8eaef"/>
  <line x1="270" y1="160" x2="270" y2="180" stroke="#e8eaef"/>
  <line x1="540" y1="160" x2="540" y2="180" stroke="#e8eaef"/>
  <line x1="620" y1="160" x2="620" y2="180" stroke="#e8eaef"/>
  <text x="202" y="173" font-size="9" font-weight="700" fill="#555">전화번호</text>
  <text x="552" y="173" font-size="9" font-weight="700" fill="#555">휴대전화번호</text>
  <rect x="190" y="180" width="572" height="20" fill="#fafbfc" stroke="#e8eaef"/>
  <line x1="270" y1="180" x2="270" y2="200" stroke="#e8eaef"/>
  <line x1="540" y1="180" x2="540" y2="200" stroke="#e8eaef"/>
  <line x1="620" y1="180" x2="620" y2="200" stroke="#e8eaef"/>
  <text x="202" y="193" font-size="9" font-weight="700" fill="#555">이메일</text>
  <text x="282" y="193" font-size="9" fill="#333">asdasd @ bbb.com</text>
  <text x="552" y="193" font-size="9" font-weight="700" fill="#555"></text>
  <rect x="190" y="200" width="572" height="22" fill="#fafbfc" stroke="#e8eaef"/>
  <line x1="270" y1="200" x2="270" y2="222" stroke="#e8eaef"/>
  <text x="202" y="214" font-size="9" font-weight="700" fill="#555">주소</text><text x="226" y="211" font-size="7" fill="#e0392b">&#9733;</text>
  <rect x="280" y="204" width="50" height="14" rx="2" fill="#fff" stroke="#9aa3b4"/><text x="305" y="214" text-anchor="middle" font-size="8" fill="#445">주소검색</text>
  <text x="190" y="250" font-size="11" font-weight="700" fill="#333">납세자</text>
  <rect x="262" y="240" width="13" height="13" rx="2" fill="#1d6fd0"/><text x="268.5" y="250" text-anchor="middle" font-size="10" font-weight="700" fill="#fff">&#10003;</text>
  <text x="280" y="250" font-size="9.5" font-weight="700" fill="#1d6fd0">신고인과 동일</text>
  <line x1="190" y1="256" x2="762" y2="256" stroke="#cfd5df"/>
  <rect x="190" y="262" width="572" height="20" fill="#fafbfc" stroke="#e8eaef"/>
  <line x1="270" y1="262" x2="270" y2="282" stroke="#e8eaef"/>
  <line x1="540" y1="262" x2="540" y2="282" stroke="#e8eaef"/>
  <line x1="620" y1="262" x2="620" y2="282" stroke="#e8eaef"/>
  <text x="202" y="275" font-size="9" font-weight="700" fill="#555">성명</text>
  <text x="552" y="275" font-size="9" font-weight="700" fill="#555">주민등록번호</text>
  <text x="640" y="276" font-size="10" fill="#333" letter-spacing="1">&#9679;&#9679;&#9679;&#9679;&#9679;&#9679;&#9679;</text>
  <rect x="190" y="282" width="572" height="20" fill="#fafbfc" stroke="#e8eaef"/>
  <line x1="270" y1="282" x2="270" y2="302" stroke="#e8eaef"/>
  <line x1="540" y1="282" x2="540" y2="302" stroke="#e8eaef"/>
  <line x1="620" y1="282" x2="620" y2="302" stroke="#e8eaef"/>
  <text x="202" y="295" font-size="9" font-weight="700" fill="#555">전화번호</text>
  <text x="552" y="295" font-size="9" font-weight="700" fill="#555">휴대전화번호</text>
  <rect x="190" y="302" width="572" height="20" fill="#fafbfc" stroke="#e8eaef"/>
  <line x1="270" y1="302" x2="270" y2="322" stroke="#e8eaef"/>
  <line x1="540" y1="302" x2="540" y2="322" stroke="#e8eaef"/>
  <line x1="620" y1="302" x2="620" y2="322" stroke="#e8eaef"/>
  <text x="202" y="315" font-size="9" font-weight="700" fill="#555">이메일</text>
  <text x="282" y="315" font-size="9" fill="#333">asdasd @ bbb.com</text>
  <text x="552" y="315" font-size="9" font-weight="700" fill="#555"></text>
  <rect x="190" y="322" width="572" height="22" fill="#fafbfc" stroke="#e8eaef"/>
  <line x1="270" y1="322" x2="270" y2="344" stroke="#e8eaef"/>
  <text x="202" y="336" font-size="9" font-weight="700" fill="#555">주소</text><text x="226" y="333" font-size="7" fill="#e0392b">&#9733;</text>
  <rect x="280" y="326" width="50" height="14" rx="2" fill="#fff" stroke="#9aa3b4"/><text x="305" y="336" text-anchor="middle" font-size="8" fill="#445">주소검색</text>
  <rect x="2" y="600" width="776" height="40" fill="#eef0f4"/>
  <rect x="16" y="610" width="48" height="22" rx="3" fill="#fff" stroke="#9aa3b4"/><text x="40.0" y="625" text-anchor="middle" font-size="9" fill="#445">임시저장</text>
  <rect x="72" y="610" width="48" height="22" rx="3" fill="#fff" stroke="#9aa3b4"/><text x="96.0" y="625" text-anchor="middle" font-size="9" fill="#445">신고취소</text>
  <rect x="646" y="610" width="116" height="22" rx="3" fill="url(#btnBlue)"/><text x="704.0" y="625" text-anchor="middle" font-size="9.5" font-weight="700" fill="#fff">다음 &#8594;</text>
  <rect x="256" y="236" width="128" height="20" rx="3" fill="none" stroke="#e0392b" stroke-width="2" stroke-dasharray="5 3"/>
  <circle cx="256" cy="236" r="11" fill="#e0392b"/><text x="256" y="240" text-anchor="middle" font-size="12" font-weight="700" fill="#fff">1</text>
</svg>
