<svg viewBox="0 0 780 642" xmlns="http://www.w3.org/2000/svg" font-family="'Malgun Gothic','Noto Sans KR',sans-serif">
  <defs>
    <linearGradient id="btnBlue" x1="0" y1="0" x2="0" y2="1">
      <stop offset="0" stop-color="#3d83dd"/><stop offset="1" stop-color="#2a6fc9"/>
    </linearGradient>
  </defs>
  <rect x="2" y="2" width="776" height="638" rx="4" fill="#ffffff" stroke="#cfd5df" stroke-width="1.5"/>
  <text x="455" y="30" text-anchor="middle" font-size="16" font-weight="700" fill="#1d5fb0">취득세 신고(부동산 유상취득)</text>
  <text x="22" y="56" font-size="12" font-weight="700" fill="#2c3550">신고대상</text>
  <rect x="18" y="66" width="150" height="356" rx="3" fill="#ffffff" stroke="#dfe3ea"/>
  <circle cx="40" cy="92" r="9" fill="#2c3550"/><text x="40" y="95.5" text-anchor="middle" font-size="9" font-weight="700" fill="#fff">1</text>
  <text x="56" y="95.5" font-size="9.5" font-weight="400" fill="#555">신고인</text>
  <circle cx="40" cy="126" r="9" fill="#2c3550"/><text x="40" y="129.5" text-anchor="middle" font-size="9" font-weight="700" fill="#fff">2</text>
  <text x="56" y="129.5" font-size="9.5" font-weight="400" fill="#555">신고유형</text>
  <circle cx="40" cy="160" r="9" fill="#2c3550"/><text x="40" y="163.5" text-anchor="middle" font-size="9" font-weight="700" fill="#fff">3</text>
  <text x="56" y="163.5" font-size="9.5" font-weight="400" fill="#555">신고내용</text>
  <circle cx="40" cy="194" r="9" fill="#2c3550"/><text x="40" y="197.5" text-anchor="middle" font-size="9" font-weight="700" fill="#fff">4</text>
  <text x="56" y="197.5" font-size="9.5" font-weight="400" fill="#555">감면신청</text>
  <circle cx="40" cy="228" r="9" fill="#2c3550"/><text x="40" y="231.5" text-anchor="middle" font-size="9" font-weight="700" fill="#fff">5</text>
  <text x="56" y="231.5" font-size="9.5" font-weight="400" fill="#555">산출세액확인</text>
  <circle cx="40" cy="262" r="9" fill="#2c3550"/><text x="40" y="265.5" text-anchor="middle" font-size="9" font-weight="700" fill="#fff">6</text>
  <text x="56" y="265.5" font-size="9.5" font-weight="400" fill="#555">구비서류등록</text>
  <circle cx="40" cy="296" r="9" fill="#1d6fd0"/><text x="40" y="299.5" text-anchor="middle" font-size="9" font-weight="700" fill="#fff">7</text>
  <text x="56" y="299.5" font-size="9.5" font-weight="700" fill="#1d6fd0">신고서제출</text>
  <text x="150" y="300" font-size="11" fill="#1d6fd0">&#9654;</text>
  <circle cx="40" cy="330" r="9" fill="#2c3550"/><text x="40" y="333.5" text-anchor="middle" font-size="9" font-weight="700" fill="#fff">8</text>
  <text x="56" y="333.5" font-size="9.5" font-weight="400" fill="#555">납부</text>
  <rect x="185" y="62" width="577" height="22" rx="2" fill="#eef6ff"/>
  <text x="473" y="77" text-anchor="middle" font-size="10" font-weight="700" fill="#2c4a6b">취득세 ( &#9679; 기한 내 / &#9711; 기한 후 ) 신고서</text>
  <text x="190" y="104" font-size="10" font-weight="700" fill="#333">신고인</text>
  <line x1="190" y1="110" x2="762" y2="110" stroke="#cfd5df"/>
  <rect x="190" y="114" width="572" height="40" fill="#fafbfc" stroke="#e8eaef"/>
  <line x1="270" y1="114" x2="270" y2="154" stroke="#e8eaef"/><line x1="540" y1="114" x2="540" y2="154" stroke="#e8eaef"/><line x1="620" y1="114" x2="620" y2="154" stroke="#e8eaef"/>
  <line x1="270" y1="134" x2="762" y2="134" stroke="#eef0f3"/>
  <text x="202" y="138" font-size="9" font-weight="700" fill="#555">취득자
(신고자)</text>
  <text x="282" y="128" font-size="8.5" font-weight="700" fill="#666">성명</text><text x="552" y="128" font-size="8.5" font-weight="700" fill="#666">주민등록번호</text><text x="632" y="129" font-size="9" fill="#333" letter-spacing="1">&#9679;&#9679;&#9679;&#9679;&#9679;&#9679;&#9679;</text>
  <text x="282" y="148" font-size="8.5" font-weight="700" fill="#666">주소</text><text x="552" y="148" font-size="8.5" font-weight="700" fill="#666">전화번호</text>
  <rect x="190" y="154" width="572" height="40" fill="#fafbfc" stroke="#e8eaef"/>
  <line x1="270" y1="154" x2="270" y2="194" stroke="#e8eaef"/><line x1="540" y1="154" x2="540" y2="194" stroke="#e8eaef"/><line x1="620" y1="154" x2="620" y2="194" stroke="#e8eaef"/>
  <line x1="270" y1="174" x2="762" y2="174" stroke="#eef0f3"/>
  <text x="202" y="178" font-size="9" font-weight="700" fill="#555">전 소유자</text>
  <text x="282" y="168" font-size="8.5" font-weight="700" fill="#666">성명</text><text x="552" y="168" font-size="8.5" font-weight="700" fill="#666">주민등록번호</text><text x="632" y="169" font-size="9" fill="#333" letter-spacing="1">&#9679;&#9679;&#9679;&#9679;&#9679;&#9679;&#9679;</text>
  <text x="282" y="188" font-size="8.5" font-weight="700" fill="#666">주소</text><text x="552" y="188" font-size="8.5" font-weight="700" fill="#666">전화번호</text>
  <rect x="190" y="194" width="572" height="20" fill="#fafbfc" stroke="#e8eaef"/>
  <line x1="270" y1="194" x2="270" y2="214" stroke="#e8eaef"/>
  <text x="202" y="207" font-size="9" font-weight="700" fill="#555">매도자와의 관계</text><text x="282" y="207" font-size="9" fill="#333">기타</text>
  <text x="190" y="236" font-size="10" font-weight="700" fill="#333">취득물건 내역</text>
  <rect x="190" y="242" width="572" height="18" fill="#f5f6f9" stroke="#e2e5ec"/>
  <text x="202" y="254" font-size="8.5" font-weight="700" fill="#555">소재지</text><text x="270" y="254" font-size="8" fill="#333">경기도 김포시 운양동 1300-3, 김포한강신도시반도유보라2차 706동 2404호</text>
  <rect x="190" y="260" width="572" height="18" fill="#f5f6f9" stroke="#e2e5ec"/>
  <text x="240.0" y="272" text-anchor="middle" font-size="8" font-weight="700" fill="#555">취득물건</text>
  <text x="330.0" y="272" text-anchor="middle" font-size="8" font-weight="700" fill="#555">취득일</text>
  <text x="410.0" y="272" text-anchor="middle" font-size="8" font-weight="700" fill="#555">면적</text>
  <text x="490.0" y="272" text-anchor="middle" font-size="8" font-weight="700" fill="#555">종류</text>
  <text x="565.0" y="272" text-anchor="middle" font-size="8" font-weight="700" fill="#555">용도</text>
  <text x="640.0" y="272" text-anchor="middle" font-size="8" font-weight="700" fill="#555">취득원인</text>
  <text x="721.0" y="272" text-anchor="middle" font-size="8" font-weight="700" fill="#555">취득가액</text>
  <line x1="290" y1="260" x2="290" y2="314" stroke="#e2e5ec"/>
  <line x1="370" y1="260" x2="370" y2="314" stroke="#e2e5ec"/>
  <line x1="450" y1="260" x2="450" y2="314" stroke="#e2e5ec"/>
  <line x1="530" y1="260" x2="530" y2="314" stroke="#e2e5ec"/>
  <line x1="600" y1="260" x2="600" y2="314" stroke="#e2e5ec"/>
  <line x1="680" y1="260" x2="680" y2="314" stroke="#e2e5ec"/>
  <rect x="190" y="278" width="572" height="36" fill="#fff" stroke="#e2e5ec"/>
  <line x1="190" y1="296" x2="762" y2="296" stroke="#eef0f3"/>
  <text x="240.0" y="290" text-anchor="middle" font-size="7.5" fill="#444">건물</text>
  <text x="330.0" y="290" text-anchor="middle" font-size="7.5" fill="#444">2023-11-17</text>
  <text x="410.0" y="290" text-anchor="middle" font-size="7.5" fill="#444">59.42 m&#178;</text>
  <text x="490.0" y="290" text-anchor="middle" font-size="7.5" fill="#444"></text>
  <text x="565.0" y="290" text-anchor="middle" font-size="7.5" fill="#444">아파트</text>
  <text x="640.0" y="290" text-anchor="middle" font-size="7.5" fill="#444">유상취득</text>
  <text x="721.0" y="290" text-anchor="middle" font-size="7.5" fill="#444">410,000,000 원</text>
  <text x="240.0" y="308" text-anchor="middle" font-size="7.5" fill="#444">토지(농지외)</text>
  <text x="330.0" y="308" text-anchor="middle" font-size="7.5" fill="#444">2023-11-17</text>
  <text x="410.0" y="308" text-anchor="middle" font-size="7.5" fill="#444">44.96 m&#178;</text>
  <text x="490.0" y="308" text-anchor="middle" font-size="7.5" fill="#444">대지</text>
  <text x="565.0" y="308" text-anchor="middle" font-size="7.5" fill="#444"></text>
  <text x="640.0" y="308" text-anchor="middle" font-size="7.5" fill="#444">유상취득</text>
  <text x="721.0" y="308" text-anchor="middle" font-size="7.5" fill="#444">0 원</text>
  <text x="473" y="338" text-anchor="middle" font-size="8" fill="#555">「지방세법」 제20조제1항, 제152조제1항, 같은 법 시행령 제33조제1항에 따라 위와 같이 신고합니다.</text>
  <text x="473" y="354" text-anchor="middle" font-size="8.5" fill="#333">2025년 6월 20일</text>
  <text x="660" y="374" font-size="8.5" fill="#333">신고인  홍 길 동 (인)</text>
  <rect x="2" y="600" width="776" height="40" fill="#eef0f4"/>
  <rect x="16" y="610" width="48" height="22" rx="3" fill="#fff" stroke="#9aa3b4"/><text x="40.0" y="625" text-anchor="middle" font-size="9" fill="#445">임시저장</text>
  <rect x="72" y="610" width="48" height="22" rx="3" fill="#fff" stroke="#9aa3b4"/><text x="96.0" y="625" text-anchor="middle" font-size="9" fill="#445">신고취소</text>
  <rect x="128" y="610" width="48" height="22" rx="3" fill="#fff" stroke="#9aa3b4"/><text x="152.0" y="625" text-anchor="middle" font-size="9" fill="#445">미리보기</text>
  <rect x="726" y="610" width="36" height="22" rx="3" fill="url(#btnBlue)"/><text x="744.0" y="625" text-anchor="middle" font-size="9.5" font-weight="700" fill="#fff">제출</text>
  <rect x="708" y="608" width="54" height="26" rx="3" fill="none" stroke="#e0392b" stroke-width="2" stroke-dasharray="5 3"/>
  <circle cx="708" cy="608" r="11" fill="#e0392b"/><text x="708" y="612" text-anchor="middle" font-size="12" font-weight="700" fill="#fff">1</text>
</svg>
