<svg viewBox="0 0 780 642" xmlns="http://www.w3.org/2000/svg" font-family="'Malgun Gothic','Noto Sans KR',sans-serif">
  <defs>
    <linearGradient id="btnBlue" x1="0" y1="0" x2="0" y2="1">
      <stop offset="0" stop-color="#3d83dd"/><stop offset="1" stop-color="#2a6fc9"/>
    </linearGradient>
  </defs>
  <rect x="2" y="2" width="776" height="638" rx="4" fill="#ffffff" stroke="#cfd5df" stroke-width="1.5"/>
  <text x="455" y="30" text-anchor="middle" font-size="16" font-weight="700" fill="#1d5fb0">취득세 신고</text>
  <text x="762" y="50" text-anchor="end" font-size="9" fill="#e0392b">&#8226; 는 필수 입력 항목 입니다.</text>
  <text x="22" y="56" font-size="12" font-weight="700" fill="#2c3550">신고대상</text>
  <rect x="18" y="66" width="150" height="356" rx="3" fill="#ffffff" stroke="#dfe3ea"/>
  <circle cx="40" cy="92" r="9" fill="#2c3550"/><text x="40" y="95.5" text-anchor="middle" font-size="9" font-weight="700" fill="#fff">1</text>
  <text x="56" y="95.5" font-size="9.5" font-weight="400" fill="#555">신고인</text>
  <circle cx="40" cy="126" r="9" fill="#1d6fd0"/><text x="40" y="129.5" text-anchor="middle" font-size="9" font-weight="700" fill="#fff">2</text>
  <text x="56" y="129.5" font-size="9.5" font-weight="700" fill="#1d6fd0">신고유형</text>
  <text x="150" y="130" font-size="11" fill="#1d6fd0">&#9654;</text>
  <circle cx="40" cy="160" r="9" fill="#2c3550"/><text x="40" y="163.5" text-anchor="middle" font-size="9" font-weight="700" fill="#fff">3</text>
  <text x="56" y="163.5" font-size="9.5" font-weight="400" fill="#555">신고내용</text>
  <circle cx="40" cy="194" r="9" fill="#2c3550"/><text x="40" y="197.5" text-anchor="middle" font-size="9" font-weight="700" fill="#fff">4</text>
  <text x="56" y="197.5" font-size="9.5" font-weight="400" fill="#555">감면신청</text>
  <circle cx="40" cy="228" r="9" fill="#2c3550"/><text x="40" y="231.5" text-anchor="middle" font-size="9" font-weight="700" fill="#fff">5</text>
  <text x="56" y="231.5" font-size="9.5" font-weight="400" fill="#555">산출세액확인</text>
  <circle cx="40" cy="262" r="9" fill="#2c3550"/><text x="40" y="265.5" text-anchor="middle" font-size="9" font-weight="700" fill="#fff">6</text>
  <text x="56" y="265.5" font-size="9.5" font-weight="400" fill="#555">구비서류등록</text>
  <circle cx="40" cy="296" r="9" fill="#2c3550"/><text x="40" y="299.5" text-anchor="middle" font-size="9" font-weight="700" fill="#fff">7</text>
  <text x="56" y="299.5" font-size="9.5" font-weight="400" fill="#555">신고서제출</text>
  <circle cx="40" cy="330" r="9" fill="#2c3550"/><text x="40" y="333.5" text-anchor="middle" font-size="9" font-weight="700" fill="#fff">8</text>
  <text x="56" y="333.5" font-size="9.5" font-weight="400" fill="#555">납부</text>
  <rect x="185" y="62" width="577" height="40" rx="3" fill="#fff" stroke="#f0d8d8"/>
  <text x="196" y="78" font-size="10" font-weight="700" fill="#d9534f">&#9888; 유의사항</text>
  <text x="755" y="78" text-anchor="end" font-size="12" fill="#999">&#8722;</text>
  <text x="196" y="94" font-size="8.5" fill="#666">&#8226; 취득일자가 2011년 1월 1일 이전일 경우에는 해당 자치단체를 방문하여 신고해 주시기 바랍니다.</text>
  <text x="190" y="120" font-size="9.5" font-weight="700" fill="#444">납세자</text>
  <text x="240" y="121" font-size="11" fill="#333" letter-spacing="1">&#9679;&#9679;&#9679;&#9679;&#9679;&#9679;</text>
  <text x="190" y="146" font-size="11" font-weight="700" fill="#333">신고유형 선택</text>
  <text x="762" y="146" text-anchor="end" font-size="8.5" fill="#e0392b">&#8226; 아래 신고할 취득물건과 취득원인을 선택한 후 신고서 작성을 진행하여 주십시오.</text>
  <rect x="190" y="168" width="178" height="22" fill="#f5f6f9" stroke="#e2e5ec"/>
  <text x="279.0" y="183" text-anchor="middle" font-size="9.5" font-weight="700" fill="#444">물건종류</text>
  <rect x="190" y="190" width="178" height="232" fill="#fff" stroke="#e2e5ec"/>
  <rect x="190" y="190" width="178" height="26" fill="#eaf2fc"/>
  <text x="202" y="207" font-size="9.5" font-weight="700" fill="#1d6fd0">부동산</text>
  <line x1="190" y1="216" x2="368" y2="216" stroke="#eef0f3"/>
  <rect x="382" y="168" width="178" height="22" fill="#f5f6f9" stroke="#e2e5ec"/>
  <text x="471.0" y="183" text-anchor="middle" font-size="9.5" font-weight="700" fill="#444">물건상세종류</text>
  <rect x="382" y="190" width="178" height="232" fill="#fff" stroke="#e2e5ec"/>
  <rect x="382" y="190" width="178" height="26" fill="#eaf2fc"/>
  <text x="394" y="207" font-size="9.5" font-weight="700" fill="#1d6fd0">건물</text>
  <line x1="382" y1="216" x2="560" y2="216" stroke="#eef0f3"/>
  <text x="394" y="233" font-size="9.5" font-weight="400" fill="#555">시설물</text>
  <line x1="382" y1="242" x2="560" y2="242" stroke="#eef0f3"/>
  <text x="394" y="259" font-size="9.5" font-weight="400" fill="#555">토지(농지)</text>
  <line x1="382" y1="268" x2="560" y2="268" stroke="#eef0f3"/>
  <text x="394" y="285" font-size="9.5" font-weight="400" fill="#555">토지(농지외)</text>
  <line x1="382" y1="294" x2="560" y2="294" stroke="#eef0f3"/>
  <rect x="574" y="168" width="178" height="22" fill="#f5f6f9" stroke="#e2e5ec"/>
  <text x="663.0" y="183" text-anchor="middle" font-size="9.5" font-weight="700" fill="#444">취득원인</text>
  <rect x="574" y="190" width="178" height="232" fill="#fff" stroke="#e2e5ec"/>
  <rect x="574" y="190" width="178" height="26" fill="#eaf2fc"/>
  <text x="586" y="207" font-size="9.5" font-weight="700" fill="#1d6fd0">유상취득</text>
  <line x1="574" y1="216" x2="752" y2="216" stroke="#eef0f3"/>
  <text x="586" y="233" font-size="9.5" font-weight="400" fill="#555">유상경락</text>
  <line x1="574" y1="242" x2="752" y2="242" stroke="#eef0f3"/>
  <text x="586" y="259" font-size="9.5" font-weight="400" fill="#555">무상상속</text>
  <line x1="574" y1="268" x2="752" y2="268" stroke="#eef0f3"/>
  <text x="586" y="285" font-size="9.5" font-weight="400" fill="#555">무상증여</text>
  <line x1="574" y1="294" x2="752" y2="294" stroke="#eef0f3"/>
  <text x="586" y="311" font-size="9.5" font-weight="400" fill="#555">무상기부</text>
  <line x1="574" y1="320" x2="752" y2="320" stroke="#eef0f3"/>
  <text x="586" y="337" font-size="9.5" font-weight="400" fill="#555">원시개수</text>
  <line x1="574" y1="346" x2="752" y2="346" stroke="#eef0f3"/>
  <text x="372" y="300" font-size="13" fill="#aaa">&#62;</text>
  <text x="564" y="300" font-size="13" fill="#aaa">&#62;</text>
  <rect x="2" y="600" width="776" height="40" fill="#eef0f4"/>
  <rect x="16" y="610" width="48" height="22" rx="3" fill="#fff" stroke="#9aa3b4"/><text x="40.0" y="625" text-anchor="middle" font-size="9" fill="#445">임시저장</text>
  <rect x="72" y="610" width="48" height="22" rx="3" fill="#fff" stroke="#9aa3b4"/><text x="96.0" y="625" text-anchor="middle" font-size="9" fill="#445">신고취소</text>
  <rect x="646" y="610" width="116" height="22" rx="3" fill="url(#btnBlue)"/><text x="704.0" y="625" text-anchor="middle" font-size="9.5" font-weight="700" fill="#fff">다음 &#8594;</text>
  <rect x="572" y="188" width="182" height="26" rx="3" fill="none" stroke="#e0392b" stroke-width="2" stroke-dasharray="5 3"/>
  <circle cx="572" cy="188" r="11" fill="#e0392b"/><text x="572" y="192" text-anchor="middle" font-size="12" font-weight="700" fill="#fff">1</text>
</svg>
